<svg xmlns="http://www.w3.org/2000/svg" viewBox="0 0 750 500"><g id="freepik--background-complete--inject-24"><path d="M133.85,38.77s-12,4.52-12.32,7c0,0,2.64,9,14.11,15.41l-.55,4.21,1.86,6c1.59-9,2.35-22.38,2.35-22.38S136.89,40.53,133.85,38.77Z" style="fill:#ebebeb"></path><path d="M133.66,39.7s-.81,12.41,4.29,19.57C138,59.27,140.75,47.65,133.66,39.7Z" style="fill:#e0e0e0"></path><path d="M157.27,47.83s-9.05-9.08-11.41-8.37c0,0-7.15,6.13-8.24,19.21l-4.07,1.22S128.49,51.25,116,49.51c0,0-2.71,13.09-3,13.05a23.11,23.11,0,0,0,15.77,1.5c8.9-2.28,21.37-7.06,21.37-7.06S156.92,51.33,157.27,47.83Z" style="fill:#ebebeb"></path><path d="M131.92,62.06s-10.81-2.43-18.06.37C113.86,62.43,124.69,67,131.92,62.06Z" style="fill:#e0e0e0"></path><path d="M156.35,48s-11.64,4.36-16.07,12C140.28,60,152,57.78,156.35,48Z" style="fill:#e0e0e0"></path><polygon points="177.06 48.6 189 98.27 113.67 120.98 97.9 72.47 177.06 48.6" style="fill:#ebebeb"></polygon><polygon points="162.77 52.91 177.49 101.74 189 98.27 177.06 48.6 162.77 52.91" style="fill:#e0e0e0"></polygon><polygon points="171.4 50.31 184.2 99.71 181.59 100.5 166.87 51.68 171.4 50.31" style="fill:#fafafa"></polygon><rect x="135.03" y="61.42" width="6.56" height="50.99" transform="translate(-19.2 43.63) rotate(-16.78)" style="fill:#fafafa"></rect><rect x="103.76" y="81.72" width="80.64" height="4.95" transform="translate(-18.53 46.7) rotate(-17.32)" style="fill:#fafafa"></rect><path d="M662.66,213s-9.1-.65-10,.83c0,0-1,6.64,4.55,14.17l-1.62,2.56L655,235c3.72-5.38,8.18-13.78,8.18-13.78S664.11,215,662.66,213Z" style="fill:#ebebeb"></path><path d="M662.26,213.5s-4.22,7.78-3,13.93C659.21,227.43,664.49,220.75,662.26,213.5Z" style="fill:#e0e0e0"></path><path d="M675.12,225.79s-3.15-8.57-4.89-8.81c0,0-6.45,1.83-11.05,10l-3-.41s-.7-7.1-8.23-11.94c0,0-5.66,7.67-5.8,7.56a16.43,16.43,0,0,0,9.75,5.67c6.43,1.18,15.92,1.8,15.92,1.8S673.85,227.94,675.12,225.79Z" style="fill:#ebebeb"></path><path d="M654.48,227.44s-6.27-4.79-11.79-5.14C642.69,222.3,648.34,228.47,654.48,227.44Z" style="fill:#e0e0e0"></path><path d="M674.46,225.65s-8.83-.65-14,2.95C660.5,228.6,668.76,230.66,674.46,225.65Z" style="fill:#e0e0e0"></path><polygon points="687.69 232.18 680.62 267.86 625.13 260.12 629.38 224.05 687.69 232.18" style="fill:#ebebeb"></polygon><polygon points="677.16 230.71 672.14 266.67 680.62 267.86 687.69 232.18 677.16 230.71" style="fill:#e0e0e0"></polygon><polygon points="683.52 231.6 677.09 267.36 675.16 267.09 680.18 231.13 683.52 231.6" style="fill:#fafafa"></polygon><rect x="633.06" y="243.09" width="36.31" height="4.67" transform="translate(318.21 856.5) rotate(-82.06)" style="fill:#fafafa"></rect><rect x="627.04" y="243.62" width="57.42" height="3.52" transform="translate(37.07 -82.43) rotate(7.4)" style="fill:#fafafa"></rect><path d="M131.1,244.87l-27.83-60a6.57,6.57,0,0,0-3.92-3.53l-29.86-9.88a6.54,6.54,0,0,0-8.07,3.62L49,203.94a6.56,6.56,0,0,0,0,5.28l27.84,60a6.54,6.54,0,0,0,8.65,3.3l42.33-19A6.54,6.54,0,0,0,131.1,244.87ZM74.53,193a6.15,6.15,0,1,1,3.63-7.9A6.15,6.15,0,0,1,74.53,193Z" style="fill:#e0e0e0"></path><path d="M131.1,244.87l-27.83-60a6.57,6.57,0,0,0-3.92-3.53l-29.86-9.88a6.54,6.54,0,0,0-8.07,3.62L49,203.94a6.56,6.56,0,0,0,0,5.28l27.84,60a6.54,6.54,0,0,0,8.65,3.3l42.33-19A6.54,6.54,0,0,0,131.1,244.87ZM74.53,193a6.15,6.15,0,1,1,3.63-7.9A6.15,6.15,0,0,1,74.53,193Z" style="fill:none"></path><path d="M65.78,228.46c-2.72-5.85-.68-11.09,4.3-13.4s10.35-.52,13.07,5.33.69,11.1-4.35,13.43S68.53,234.37,65.78,228.46Zm11.52-5.35c-1.6-3.43-3.44-4.22-5.09-3.46s-2.22,2.68-.62,6.12,3.53,4.18,5.08,3.46S78.89,226.55,77.3,223.11Zm13-16.93,7-3.24-7.38,44.61-7,3.24Zm6.79,27.14c-2.72-5.85-.73-11.07,4.3-13.41s10.35-.52,13.07,5.34.68,11.09-4.35,13.43S99.84,239.22,97.1,233.32ZM108.61,228c-1.59-3.44-3.48-4.21-5.08-3.47s-2.22,2.69-.63,6.12,3.49,4.2,5.09,3.46S110.21,231.4,108.61,228Z" style="fill:#fff"></path><path d="M649.65,162.08,522.9,127a6.11,6.11,0,0,1-4.26-7.53l21.69-78.3a6.12,6.12,0,0,1,7.53-4.27L674.61,72a6.12,6.12,0,0,1,4.27,7.53l-21.7,78.3A6.11,6.11,0,0,1,649.65,162.08Z" style="fill:#e0e0e0"></path><path d="M538.26,96.28,536.13,104l-.79-.21,1.94-7-1.81-.5.19-.71Z" style="fill:#fff"></path><path d="M544.24,105.46l-.2.71-5.39-1.5.15-.56,4.07-2.25c1.1-.61,1.41-1.08,1.56-1.61.25-.89-.23-1.61-1.4-1.94a2.72,2.72,0,0,0-2.34.28l-.43-.64a3.61,3.61,0,0,1,3-.35c1.56.44,2.33,1.5,2,2.79-.21.73-.62,1.33-1.93,2L540,104.29Z" style="fill:#fff"></path><path d="M552.7,106.39l-1.54-.43-.56,2-.79-.22.56-2-4.34-1.2.16-.57,5.49-4,.88.24-5.31,3.88,3.34.92.49-1.78.77.22-.49,1.78,1.54.42Z" style="fill:#fff"></path><path d="M564.49,109.65l-1.54-.42-.56,2-.79-.22.56-2-4.34-1.21.16-.57,5.49-4,.87.25L559,107.38l3.34.93.5-1.78.77.21-.5,1.78,1.54.43Z" style="fill:#fff"></path><path d="M571.28,111.27c-.37,1.31-1.56,2.08-3.44,1.56a4.13,4.13,0,0,1-2.48-1.75l.55-.52A3.48,3.48,0,0,0,568,112.1c1.31.36,2.18-.08,2.43-1s-.17-1.77-2.12-2.31l-1.64-.46,1.46-3.74,4.21,1.16-.19.71-3.52-1-.94,2.38,1,.27C571,108.75,571.65,109.91,571.28,111.27Z" style="fill:#fff"></path><path d="M578.89,113.35a2.5,2.5,0,0,1-3.28,1.63c-2.05-.57-2.76-2.29-2.09-4.72.72-2.61,2.53-3.58,4.62-3a3.62,3.62,0,0,1,1.7.92l-.49.55A2.82,2.82,0,0,0,578,108c-1.66-.46-3,.31-3.6,2.4a6.31,6.31,0,0,0-.14.64,2.53,2.53,0,0,1,2.71-.67A2.42,2.42,0,0,1,578.89,113.35Zm-.79-.2a1.75,1.75,0,0,0-1.47-2.19,1.85,1.85,0,0,0-2.45,1.13c-.23.85.25,1.84,1.58,2.21A1.74,1.74,0,0,0,578.1,113.15Z" style="fill:#fff"></path><path d="M589.39,116.35c-.36,1.28-1.57,2-3.42,1.5a4.18,4.18,0,0,1-2.5-1.76l.56-.52a3.45,3.45,0,0,0,2.14,1.55c1.27.36,2.14,0,2.4-1s-.22-1.7-1.65-2.1l-.55-.15.16-.58,2.87-2.08-3.93-1.09.19-.71,5,1.37-.16.56-2.93,2.14C589.14,114,589.73,115.12,589.39,116.35Z" style="fill:#fff"></path><path d="M597.12,118.4a2.48,2.48,0,0,1-3.28,1.63c-2-.56-2.76-2.29-2.09-4.72.73-2.61,2.53-3.58,4.62-3a3.66,3.66,0,0,1,1.71.92l-.5.55a2.74,2.74,0,0,0-1.39-.77c-1.66-.46-3,.31-3.6,2.39a6.31,6.31,0,0,0-.14.64,2.56,2.56,0,0,1,2.72-.67A2.41,2.41,0,0,1,597.12,118.4Zm-.78-.2c.28-1-.29-1.86-1.48-2.19a1.84,1.84,0,0,0-2.44,1.13c-.24.85.25,1.84,1.57,2.21A1.75,1.75,0,0,0,596.34,118.2Z" style="fill:#fff"></path><path d="M605.69,115l-.15.56-5.2,6.24-.86-.24,5.1-6.11-4-1.09-.4,1.44-.78-.22.59-2.14Z" style="fill:#fff"></path><path d="M616.69,118l-.16.56-5.19,6.24-.86-.24,5.1-6.11-4-1.1-.39,1.44-.78-.21.59-2.15Z" style="fill:#fff"></path><path d="M622.72,125.65c-.38,1.37-1.77,1.89-3.6,1.38s-2.73-1.66-2.36-3a2,2,0,0,1,2-1.48,1.8,1.8,0,0,1-.74-2c.35-1.25,1.63-1.74,3.26-1.29s2.49,1.53,2.15,2.79a1.82,1.82,0,0,1-1.7,1.35A2,2,0,0,1,622.72,125.65Zm-.81-.23c.26-1-.39-1.77-1.75-2.14s-2.33,0-2.59.93.37,1.78,1.73,2.15S621.64,126.37,621.91,125.42Zm-1.58-2.77c1.2.33,2.06,0,2.29-.84s-.37-1.61-1.52-1.93-2.05,0-2.28.86S619.13,122.32,620.33,122.65Z" style="fill:#fff"></path><path d="M630.68,126c-.73,2.62-2.53,3.59-4.62,3a3.67,3.67,0,0,1-1.71-.93l.5-.54a2.81,2.81,0,0,0,1.39.77c1.66.46,3-.31,3.6-2.4a6.07,6.07,0,0,0,.14-.63,2.54,2.54,0,0,1-2.72.66,2.41,2.41,0,0,1-2-3,2.49,2.49,0,0,1,3.28-1.64C630.63,121.8,631.35,123.53,630.68,126Zm-.67-1.82c.24-.85-.24-1.85-1.57-2.22a1.75,1.75,0,1,0-.87,3.35A1.85,1.85,0,0,0,630,124.13Z" style="fill:#fff"></path><path d="M639.52,124.33l-2.13,7.7-.79-.22,1.94-7-1.81-.5.19-.71Z" style="fill:#fff"></path><path d="M645.5,133.51l-.2.71-5.39-1.5.15-.56,4.07-2.24c1.1-.62,1.41-1.09,1.56-1.62.24-.89-.23-1.61-1.41-1.94a2.7,2.7,0,0,0-2.33.28l-.43-.64a3.57,3.57,0,0,1,3-.34c1.56.43,2.33,1.49,2,2.78-.21.74-.62,1.33-1.94,2.06l-3.32,1.84Z" style="fill:#fff"></path><path d="M652.81,133.92c-.35,1.28-1.56,2-3.42,1.5a4.13,4.13,0,0,1-2.49-1.76l.56-.51a3.5,3.5,0,0,0,2.13,1.55c1.28.35,2.15,0,2.41-1s-.23-1.7-1.65-2.1l-.55-.15.16-.58,2.87-2.08-3.93-1.09.19-.7,4.95,1.36-.16.57L651,131.05C652.57,131.59,653.15,132.69,652.81,133.92Z" style="fill:#fff"></path><rect x="620.17" y="103.7" width="3.47" height="63.93" transform="translate(325.16 698.78) rotate(-74.52)" style="fill:#fff"></rect><rect x="633.32" y="130.09" width="3.47" height="32.79" transform="translate(324.38 719.4) rotate(-74.52)" style="fill:#fff"></rect><g style="opacity:0.5"><rect x="537.6" y="72.26" width="26.82" height="20.04" rx="4.96" transform="matrix(0.96, 0.27, -0.27, 0.96, 41.96, -144.12)" style="fill:#f5f5f5"></rect></g><path d="M536.89,83l.34-1.24,13.31,3.69a2.9,2.9,0,0,0,1.55-5.58L538.78,76.2l.34-1.24,13.31,3.69a4.17,4.17,0,1,1-2.23,8Z" style="fill:#e0e0e0"></path><rect x="558.64" y="80.14" width="1.29" height="9.48" transform="translate(327.66 600.97) rotate(-74.46)" style="fill:#e0e0e0"></rect><rect x="546.17" y="63.1" width="68.98" height="5.92" transform="translate(38.72 -152.65) rotate(15.49)" style="fill:#fff"></rect><rect x="647.89" y="79.67" width="13.88" height="13.88" rx="3.15" transform="translate(46.9 -171.71) rotate(15.49)" style="fill:#fff"></rect><path d="M96.07,327.91c-.06,0-.11-.83-.4-2.3a28.56,28.56,0,0,0-1.84-6,22.88,22.88,0,0,0-5.22-7.66,14.58,14.58,0,0,0-20.49-.07,23,23,0,0,0-5.26,7.64,28.64,28.64,0,0,0-1.85,6c-.29,1.47-.36,2.3-.42,2.3a4,4,0,0,1,0-.61c0-.4.08-1,.19-1.72a25.73,25.73,0,0,1,1.71-6.15,22.77,22.77,0,0,1,5.27-7.87,15,15,0,0,1,21.2.07,22.91,22.91,0,0,1,5.23,7.89,26.55,26.55,0,0,1,1.69,6.16c.11.74.16,1.32.18,1.72A2.36,2.36,0,0,1,96.07,327.91Z" style="fill:#e0e0e0"></path><path d="M102.2,327.91c-.06,0-.12-.83-.4-2.3a29.81,29.81,0,0,0-1.84-6,23,23,0,0,0-5.22-7.66,14.58,14.58,0,0,0-20.49-.07A22.88,22.88,0,0,0,69,319.48a29.4,29.4,0,0,0-1.86,6c-.29,1.47-.35,2.3-.41,2.3a2.82,2.82,0,0,1,0-.61,15.73,15.73,0,0,1,.19-1.72,26.11,26.11,0,0,1,1.7-6.15,22.92,22.92,0,0,1,5.27-7.87,15,15,0,0,1,21.2.07,22.81,22.81,0,0,1,5.24,7.89,25.94,25.94,0,0,1,1.68,6.16c.11.74.16,1.32.18,1.72A2.18,2.18,0,0,1,102.2,327.91Z" style="fill:#e0e0e0"></path><polygon points="43.06 325.72 112.25 325.19 113.76 419.5 36.12 419.5 43.06 325.72" style="fill:#ebebeb"></polygon><polygon points="112.25 325.19 120.94 325.19 128.41 419.5 113.76 419.5 112.25 325.19" style="fill:#e0e0e0"></polygon><rect x="52.29" y="362.32" width="45.29" height="7.59" style="fill:#fff"></rect><path d="M648,327.91c-.06,0-.12-.83-.41-2.3a29,29,0,0,0-1.83-6,23.18,23.18,0,0,0-5.22-7.66,14.58,14.58,0,0,0-20.49-.07,22.88,22.88,0,0,0-5.26,7.64,28.78,28.78,0,0,0-1.86,6c-.29,1.47-.35,2.3-.41,2.3a2.18,2.18,0,0,1,0-.61c0-.4.07-1,.18-1.72a26.72,26.72,0,0,1,1.71-6.15,22.77,22.77,0,0,1,5.27-7.87,15,15,0,0,1,21.2.07,23,23,0,0,1,5.24,7.89,26.43,26.43,0,0,1,1.68,6.16c.11.74.16,1.32.18,1.72A2.82,2.82,0,0,1,648,327.91Z" style="fill:#e0e0e0"></path><path d="M654.15,327.91c-.06,0-.11-.83-.4-2.3a28.56,28.56,0,0,0-1.84-6,22.88,22.88,0,0,0-5.22-7.66,14.58,14.58,0,0,0-20.49-.07,23,23,0,0,0-5.26,7.64,28.64,28.64,0,0,0-1.85,6c-.29,1.47-.36,2.3-.41,2.3a2.18,2.18,0,0,1,0-.61,15.22,15.22,0,0,1,.18-1.72,25.73,25.73,0,0,1,1.71-6.15,22.77,22.77,0,0,1,5.27-7.87,15,15,0,0,1,21.2.07,22.77,22.77,0,0,1,5.23,7.89,26,26,0,0,1,1.69,6.16c.11.74.16,1.32.18,1.72A2.36,2.36,0,0,1,654.15,327.91Z" style="fill:#e0e0e0"></path><polygon points="595.02 325.72 664.2 325.19 665.71 419.5 588.08 419.5 595.02 325.72" style="fill:#ebebeb"></polygon><polygon points="664.2 325.19 672.89 325.19 680.37 419.5 665.71 419.5 664.2 325.19" style="fill:#e0e0e0"></polygon><rect x="604.25" y="362.32" width="45.29" height="7.59" style="fill:#fff"></rect></g><g id="freepik--Floor--inject-24"><path d="M697.14,419.13c0,.15-147.82.26-330.12.26s-330.16-.11-330.16-.26,147.79-.26,330.16-.26S697.14,419,697.14,419.13Z" style="fill:#263238"></path></g><g id="freepik--Box--inject-24"><rect x="61.96" y="346.59" width="95.97" height="72.55" style="fill:#ae7461"></rect><g style="opacity:0.30000000000000004"><path d="M121.78,355.11v-3.38h5.81v3.38a2.88,2.88,0,0,1-2.54,2.82v2.95h1.3c.45,0,.82.25.82.56h-5c0-.31.37-.56.82-.56h1.3v-2.95A2.88,2.88,0,0,1,121.78,355.11Z" style="fill-rule:evenodd"></path><path d="M110.64,354.88a4.22,4.22,0,0,1,4.1-3.15h0a4.23,4.23,0,0,1,4.1,3.15h-3.71v5.3a.82.82,0,0,0,1.64,0h.79a1.61,1.61,0,0,1-3.22,0v-5.3Z" style="fill-rule:evenodd"></path></g><g style="opacity:0.30000000000000004"><rect x="134.13" y="346.59" width="23.8" height="72.55" transform="translate(292.06 765.72) rotate(180)"></rect></g><path d="M134.08,418.41c-.13,0-.24-16.09-.24-35.93s.11-35.94.24-35.94.24,16.09.24,35.94S134.22,418.41,134.08,418.41Z" style="fill:#263238"></path><rect x="142.44" y="402.41" width="7.36" height="8.15" style="fill:#fff"></rect><g style="opacity:0.30000000000000004"><rect x="91.24" y="346.77" width="10.9" height="15.48"></rect></g><g style="opacity:0.30000000000000004"><rect x="91.24" y="403.44" width="10.9" height="15.48"></rect></g><path d="M62.66,346.63c0,.1,21.28.19,47.53.19s47.54-.09,47.54-.19-21.28-.19-47.54-.19S62.66,346.52,62.66,346.63Z" style="fill:#263238"></path><path d="M106.05,387.69H89.92a.7.7,0,0,1,0-1.4h15.55l1.67-9.27H88.4a.7.7,0,1,1,0-1.39H108a.7.7,0,0,1,.68.82l-1.92,10.66A.7.7,0,0,1,106.05,387.69Z" style="fill:#e0e0e0"></path><path d="M105.52,391.42h0l-15.36-.05a.69.69,0,0,1-.69-.61l-2.17-16.58H83a.7.7,0,0,1,0-1.39H87.9a.7.7,0,0,1,.69.6L90.76,390l14.76,0a.7.7,0,0,1,0,1.39Z" style="fill:#e0e0e0"></path><path d="M92.66,396.78a2.57,2.57,0,1,1,2.61-2.57A2.6,2.6,0,0,1,92.66,396.78Zm0-3.75a1.18,1.18,0,1,0,0,2.35,1.18,1.18,0,1,0,0-2.35Z" style="fill:#e0e0e0"></path><path d="M103.26,396.78a2.57,2.57,0,1,1,2.61-2.57A2.6,2.6,0,0,1,103.26,396.78Zm0-3.75a1.18,1.18,0,1,0,1.22,1.18A1.2,1.2,0,0,0,103.26,393Z" style="fill:#e0e0e0"></path><path d="M94.9,387.69a.71.71,0,0,1-.7-.66l-.65-10.32a.69.69,0,0,1,.65-.74.71.71,0,0,1,.74.65L95.59,387a.69.69,0,0,1-.65.74Z" style="fill:#e0e0e0"></path><path d="M100.8,387.69h0a.7.7,0,0,1-.66-.74l.59-10.32a.7.7,0,1,1,1.39.08L101.49,387A.7.7,0,0,1,100.8,387.69Z" style="fill:#e0e0e0"></path><path d="M89,382.53a.7.7,0,0,1,0-1.4l18-.17h0a.7.7,0,0,1,0,1.39l-18,.18Z" style="fill:#e0e0e0"></path></g><g id="freepik--Plant--inject-24"><path d="M658,392.26s-3.88-26.69-3.56-42.22,0-33,0-33h1.78s-1.21,30.83.11,49.42,4.79,25.8,4.79,25.8H658" style="fill:#263238"></path><path d="M669.59,287a4.74,4.74,0,0,0-1.63-2.38c-1.14-.72-2.63-.42-3.89,0-5.41,1.92-10.2,12-12.38,17.29l7.17,24.18C671.81,314.11,674.06,298.34,669.59,287Z" style="fill:#455a64"></path><path d="M667.54,285.61a1.52,1.52,0,0,1-.11.31l-.35.88c-.31.76-.75,1.87-1.28,3.24-1.06,2.75-2.4,6.59-3.61,10.91s-2,8.31-2.53,11.21c-.26,1.45-.45,2.62-.57,3.44l-.15.93a1.3,1.3,0,0,1-.08.33,1.63,1.63,0,0,1,0-.33c0-.25,0-.56.09-.95.09-.82.25-2,.48-3.45A103.5,103.5,0,0,1,665.6,290c.56-1.37,1-2.47,1.38-3.21.16-.35.29-.64.4-.86S667.53,285.6,667.54,285.61Z" style="fill:#263238"></path><path d="M655.67,331.92a21.91,21.91,0,0,1-11.06-18.38c-.26-5.37,1.39-10.63,3.26-15.67a2,2,0,0,1,.76-1.14,1.93,1.93,0,0,1,1.83.29c4.89,2.78,7.85,8.09,9.43,13.49A27.27,27.27,0,0,1,661,321.6a18.43,18.43,0,0,1-5.33,10.32" style="fill:#455a64"></path><path d="M655.67,331.92a1.14,1.14,0,0,1,0-.32l0-.93c0-.81,0-2-.1-3.41a93.77,93.77,0,0,0-1.25-11.17c-.75-4.33-1.65-8.21-2.32-11-.33-1.37-.6-2.5-.8-3.32l-.2-.91a2,2,0,0,1-.06-.32,1.77,1.77,0,0,1,.12.31c.06.23.15.53.26.89.22.78.52,1.9.88,3.3.72,2.79,1.66,6.67,2.41,11a81.51,81.51,0,0,1,1.17,11.21c0,1.44,0,2.61,0,3.42,0,.38,0,.68,0,.93A1.64,1.64,0,0,1,655.67,331.92Z" style="fill:#263238"></path><g style="opacity:0.30000000000000004"><path d="M655.67,331.92a21.91,21.91,0,0,1-11.06-18.38c-.26-5.37,1.39-10.63,3.26-15.67a2,2,0,0,1,.76-1.14,1.93,1.93,0,0,1,1.83.29c4.89,2.78,7.85,8.09,9.43,13.49A27.27,27.27,0,0,1,661,321.6a18.43,18.43,0,0,1-5.33,10.32"></path></g><path d="M663.26,372.76c6.62,1.45,12.07,6.12,18.46,8.39,4.22,1.5,9,2,12.38,5-.81-2-2.73-3.41-4.6-4.57a82.11,82.11,0,0,0-16.73-8c-3-1-6.26-1.9-9.32-1.05" style="fill:#455a64"></path><path d="M653.69,378.66c-8.29-.14-17-7.2-25.27-7.62,8.63-2.79,21-.51,25.27,7.62" style="fill:#455a64"></path><path d="M656.93,358.77a26.91,26.91,0,0,1,13.25-.9,79.58,79.58,0,0,1,12.94,3.51c-.42-2.87-2.75-5-4.94-6.95a34.51,34.51,0,0,0-5.2-4,11.53,11.53,0,0,0-6.23-1.76,9.84,9.84,0,0,0-6.87,3.46,11.46,11.46,0,0,0-3,6.63" style="fill:#455a64"></path><path d="M639.91,349.61c-5.21-4.45-13.12-4-20-3.86a162.33,162.33,0,0,1,31,19.31C651.2,360.21,646.51,355.24,639.91,349.61Z" style="fill:#455a64"></path><g style="opacity:0.30000000000000004"><path d="M639.91,349.61c-5.21-4.45-13.12-4-20-3.86a162.33,162.33,0,0,1,31,19.31C651.2,360.21,646.51,355.24,639.91,349.61Z"></path></g><path d="M659.28,343.46a58.3,58.3,0,0,1,8-4.66c2.75-1.25,5.31-3.24,8-4.67,3.44-1.87,6.42-4.46,9.57-6.76s6.63-4.4,10.49-5a20.57,20.57,0,0,0-9.54.55,61.74,61.74,0,0,0-9,3.5c-4.07,1.83-8.21,3.71-11.54,6.69s-6.33,5.91-6,10.36" style="fill:#455a64"></path><path d="M681.57,378.66l-.27-.12-.72-.37c-.62-.33-1.52-.83-2.65-1.39-.56-.3-1.18-.61-1.85-.92s-1.39-.66-2.15-1a31.49,31.49,0,0,0-5.11-1.78,10.91,10.91,0,0,0-5.31-.13,15,15,0,0,0-2.26.67,12.35,12.35,0,0,0-1.82.93,11.66,11.66,0,0,0-2.28,1.89c-.48.52-.72.83-.74.82l.15-.25c.11-.15.27-.37.5-.64a10.52,10.52,0,0,1,2.26-2,12.14,12.14,0,0,1,1.84-1,15.64,15.64,0,0,1,2.28-.71,11.1,11.1,0,0,1,5.45.11,30.4,30.4,0,0,1,5.15,1.82c.77.34,1.49.68,2.15,1s1.29.64,1.84.95c1.12.59,2,1.11,2.61,1.48l.69.42A1.19,1.19,0,0,1,681.57,378.66Z" style="fill:#263238"></path><path d="M647.51,374.55a1.73,1.73,0,0,1,.52.15,11.15,11.15,0,0,1,1.35.59,16.79,16.79,0,0,1,4,2.8,16.57,16.57,0,0,1,3,3.85,10.67,10.67,0,0,1,.64,1.33,2,2,0,0,1,.18.51s-.36-.68-1-1.73a18.4,18.4,0,0,0-6.84-6.58C648.2,374.88,647.49,374.6,647.51,374.55Z" style="fill:#263238"></path><path d="M629.16,349.2a1.3,1.3,0,0,1,.36.1l1,.36,1.57.58c.61.22,1.28.56,2,.89A47.61,47.61,0,0,1,644.9,358a52.61,52.61,0,0,1,5,4.95,54.09,54.09,0,0,1,3.58,4.53c.94,1.34,1.66,2.46,2.15,3.23.24.36.42.66.57.89a1.21,1.21,0,0,1,.18.32l-.23-.29c-.14-.19-.35-.48-.61-.86-.53-.75-1.27-1.85-2.23-3.17s-2.18-2.85-3.61-4.47a56,56,0,0,0-5-4.91A50.56,50.56,0,0,0,634,351.32c-.74-.34-1.4-.69-2-.93l-1.55-.63-1-.4Z" style="fill:#263238"></path><path d="M669.37,354.11a2.64,2.64,0,0,1-.66-.09l-.76-.14c-.3-.06-.65-.06-1-.1a10.52,10.52,0,0,0-5.7,1.13,10.21,10.21,0,0,0-2.59,1.92,11.89,11.89,0,0,0-1.67,2.06,17.91,17.91,0,0,0-1.14,2.18,2.67,2.67,0,0,1,.17-.65,9.65,9.65,0,0,1,.79-1.64,11.54,11.54,0,0,1,1.65-2.14,10.11,10.11,0,0,1,8.51-3.06c.38.05.73.07,1,.14l.76.19A3,3,0,0,1,669.37,354.11Z" style="fill:#263238"></path><path d="M677.7,328.26a1.13,1.13,0,0,1-.31.19l-.93.51c-.8.43-2,1.07-3.37,1.9s-3,1.87-4.8,3.12a40.39,40.39,0,0,0-5.36,4.49,13.76,13.76,0,0,0-2.19,2.84c-.55,1.05-1.07,2.05-1.54,3a56.92,56.92,0,0,0-2.31,5.25,32.65,32.65,0,0,0-1.12,3.69c-.21.88-.29,1.39-.31,1.38a1.71,1.71,0,0,1,0-.37c0-.24.08-.59.17-1a28.55,28.55,0,0,1,1-3.74,50.6,50.6,0,0,1,2.25-5.29c.47-1,1-2,1.53-3a13.47,13.47,0,0,1,2.24-2.91,38.59,38.59,0,0,1,5.41-4.51c1.78-1.25,3.44-2.26,4.86-3.08s2.6-1.42,3.42-1.83l1-.45Z" style="fill:#263238"></path><path d="M654.45,353.36a4.17,4.17,0,0,1-.16-.7c-.1-.51-.22-1.15-.36-1.91a54.31,54.31,0,0,0-1.57-6.22,53.64,53.64,0,0,0-2.37-6q-.48-1.06-.81-1.77a3.51,3.51,0,0,1-.26-.67,3.08,3.08,0,0,1,.37.62c.22.4.53,1,.89,1.73a43.4,43.4,0,0,1,2.46,6,41.85,41.85,0,0,1,1.49,6.27c.13.81.23,1.48.27,1.94A2.71,2.71,0,0,1,654.45,353.36Z" style="fill:#263238"></path><path d="M653.85,334.5a22.3,22.3,0,0,0-2.69-8.95,29.54,29.54,0,0,0-20-14.93l18.54,27.63,2.4,4.93A14.18,14.18,0,0,0,653.85,334.5Z" style="fill:#455a64"></path><rect x="637.34" y="388.96" width="43.11" height="7.64" style="fill:#FF725E"></rect><polygon points="640.56 395.08 644.23 418.79 672.85 418.79 677.23 395.08 640.56 395.08" style="fill:#FF725E"></polygon><path d="M680.43,396.61c0,.08-9.73.15-21.72.15s-21.72-.07-21.72-.15,9.72-.15,21.72-.15S680.43,396.53,680.43,396.61Z" style="fill:#263238"></path></g><g id="freepik--Device--inject-24"><path d="M576.11,413.79H153.34A25.31,25.31,0,0,1,128,388.48V98.33a18.45,18.45,0,0,1,18.45-18.45H584a17.44,17.44,0,0,1,17.44,17.44V388.48A25.31,25.31,0,0,1,576.11,413.79Z" style="fill:#455a64"></path><path d="M600.91,418.87H132.7a24.46,24.46,0,0,1-24.46-24.46V390.6a.94.94,0,0,1,.94-1h511a.94.94,0,0,1,.94,1v8.08A20.19,20.19,0,0,1,600.91,418.87Z" style="fill:#455a64"></path><path d="M600.91,418.87l.7-.05a16.84,16.84,0,0,0,2-.18,20.23,20.23,0,0,0,12.1-6.39,20.25,20.25,0,0,0,3.79-6A20.61,20.61,0,0,0,621,398.1v-7c0-.42,0-.82-.27-1.08s-.7-.22-1.12-.23l-114,.09-376.21.07H109.23a.75.75,0,0,0-.31.06.68.68,0,0,0-.39.45,4.6,4.6,0,0,0,0,.78v1.71c0,1.14,0,2.26.1,3.38a23.14,23.14,0,0,0,1.44,6.53,27.85,27.85,0,0,0,1.35,3.06,26.4,26.4,0,0,0,1.81,2.81,24.31,24.31,0,0,0,10.35,8.12,25.84,25.84,0,0,0,6.4,1.63c2.19.21,4.41.17,6.64.17h39.47l99.88,0,169.14.05,114,.09,31,.05,8.06,0,2.74,0-2.74,0-8.06,0-31,.05-114,.08-169.14.06-99.88,0H136.59c-2.22,0-4.45,0-6.7-.17a26.34,26.34,0,0,1-6.53-1.67A24.86,24.86,0,0,1,112.78,409a25.93,25.93,0,0,1-1.84-2.87,25.56,25.56,0,0,1-1.39-3.12,23.5,23.5,0,0,1-1.47-6.68c-.07-1.15-.12-2.29-.1-3.42V391.2a4.92,4.92,0,0,1,0-.91,1.2,1.2,0,0,1,.69-.8,1.37,1.37,0,0,1,.52-.1h20.14l376.21.08,114,.08h.63a1,1,0,0,1,.62.27,1.07,1.07,0,0,1,.32.6,4.46,4.46,0,0,1,0,.63v2.42c0,1.58,0,3.12,0,4.62a20.88,20.88,0,0,1-1.5,8.2,20.15,20.15,0,0,1-3.85,6,20.12,20.12,0,0,1-12.19,6.36,16,16,0,0,1-2,.16Z" style="fill:#263238"></path><rect x="147.44" y="100.26" width="433.24" height="273.52" rx="5.27" style="fill:#263238"></rect><path d="M575.41,373.78a8.81,8.81,0,0,0,.91-.1,5.15,5.15,0,0,0,2.42-1.12,5.2,5.2,0,0,0,1.89-3.87v-6.17c0-9.36,0-23.16,0-40.92,0-35.54-.05-87-.09-150.5q0-23.82,0-49.87,0-6.49,0-13.13v-1.66a12.46,12.46,0,0,0-.05-1.63A5.11,5.11,0,0,0,579,102a5,5,0,0,0-2.82-1.44,8.93,8.93,0,0,0-1.65-.07H545.33l-119.28,0-273.31,0a5,5,0,0,0-3.81,1.73,4.82,4.82,0,0,0-1,1.87,7.12,7.12,0,0,0-.21,2.18V238.77q0,34.29,0,67.3v48.68c0,2.66,0,5.31,0,7.95v3.95a9.52,9.52,0,0,0,.39,3.8,5,5,0,0,0,2.55,2.63,5.18,5.18,0,0,0,1.81.45c.63,0,1.3,0,1.94,0h53.54l57.9,0,103.93,0,150.49.08,40.92.05,10.64,0c2.39,0,3.62,0,3.62,0l-3.62,0-10.64,0-40.92.05L369.74,374l-103.93,0H154.37c-.65,0-1.29,0-2,0a5.51,5.51,0,0,1-4.77-3.37,5.32,5.32,0,0,1-.42-2V338.71q0-16.14,0-32.64v-67.3q0-34.29,0-69.74V106.3a7.68,7.68,0,0,1,.22-2.32,5.26,5.26,0,0,1,1.14-2.07,5.5,5.5,0,0,1,4.2-1.91l273.31,0,119.28,0h29.22a9.87,9.87,0,0,1,1.71.07,5.49,5.49,0,0,1,4.57,4.63,13.85,13.85,0,0,1,.06,1.69v1.66q0,6.63,0,13.13,0,26,0,49.87c0,63.54-.06,115-.08,150.5,0,17.76,0,31.56,0,40.92,0,2.34,0,4.4,0,6.18a5.25,5.25,0,0,1-4.39,5,4.41,4.41,0,0,1-.68.07Z" style="fill:#263238"></path><polygon points="318.06 389.09 324.42 399.89 413.97 399.89 419.88 389.09 318.06 389.09" style="fill:#263238"></polygon><path d="M368.22,91a3.55,3.55,0,1,1-3.55-3.55A3.55,3.55,0,0,1,368.22,91Z" style="fill:#263238"></path><rect x="164.72" y="108.98" width="400.01" height="252.13" style="fill:#fff"></rect><rect x="164.72" y="132.07" width="400.01" height="25.28" style="fill:#e0e0e0"></rect><path d="M181.1,143.66a3.86,3.86,0,1,1-3.85-3.84A3.86,3.86,0,0,1,181.1,143.66Z" style="fill:#fff"></path><path d="M192.36,143.66a3.86,3.86,0,1,1-3.86-3.84A3.86,3.86,0,0,1,192.36,143.66Z" style="fill:#fff"></path><path d="M203.61,143.66a3.86,3.86,0,1,1-3.85-3.84A3.85,3.85,0,0,1,203.61,143.66Z" style="fill:#fff"></path><rect x="215.65" y="177.65" width="46.98" height="46.98" rx="3.84" style="fill:#ebebeb"></rect><rect x="204.7" y="235.04" width="68.89" height="10.59" rx="4.26" style="fill:#ebebeb"></rect><rect x="308.41" y="168.79" width="46.98" height="46.98" rx="3.84" style="fill:#ebebeb"></rect><rect x="297.46" y="226.18" width="68.89" height="10.59" rx="4.26" style="fill:#ebebeb"></rect><rect x="215.45" y="271.43" width="46.98" height="46.98" rx="3.84" style="fill:#ebebeb"></rect><rect x="204.5" y="328.82" width="68.89" height="10.59" rx="4.26" style="fill:#ebebeb"></rect><rect x="310.13" y="261.75" width="46.98" height="46.98" rx="3.84" style="fill:#ebebeb"></rect><rect x="299.18" y="319.14" width="68.89" height="10.59" rx="4.26" style="fill:#ebebeb"></rect><rect x="449.76" y="165.49" width="54.24" height="54.24" rx="3.84" style="fill:#FF725E"></rect><path d="M485.92,197.07H468a.51.51,0,0,1-.5-.5.5.5,0,0,1,.5-.5h17.5l2-11.09H466.31a.5.5,0,0,1-.5-.5.51.51,0,0,1,.5-.5h21.75a.51.51,0,0,1,.38.18.47.47,0,0,1,.11.41l-2.14,12.08A.5.5,0,0,1,485.92,197.07Z" style="fill:#fff"></path><path d="M485.32,201.29h0l-17.06,0a.5.5,0,0,1-.49-.44l-2.45-19h-5a.51.51,0,0,1-.5-.5.5.5,0,0,1,.5-.5h5.48a.49.49,0,0,1,.5.43l2.44,19,16.63,0a.5.5,0,0,1,.49.51A.49.49,0,0,1,485.32,201.29Z" style="fill:#fff"></path><path d="M471.05,207.37a2.63,2.63,0,1,1,2.62-2.63A2.63,2.63,0,0,1,471.05,207.37Zm0-4.25a1.63,1.63,0,1,0,1.62,1.62A1.63,1.63,0,0,0,471.05,203.12Z" style="fill:#fff"></path><path d="M482.82,207.37a2.63,2.63,0,1,1,2.63-2.63A2.63,2.63,0,0,1,482.82,207.37Zm0-4.25a1.63,1.63,0,1,0,1.63,1.62A1.63,1.63,0,0,0,482.82,203.12Z" style="fill:#fff"></path><path d="M473.53,197.07a.51.51,0,0,1-.5-.47l-.72-11.7a.5.5,0,0,1,.46-.53.49.49,0,0,1,.53.47l.73,11.7a.5.5,0,0,1-.46.53Z" style="fill:#fff"></path><path d="M480.08,197.07h0a.5.5,0,0,1-.47-.53l.65-11.7a.5.5,0,0,1,.53-.47.51.51,0,0,1,.47.53l-.66,11.7A.5.5,0,0,1,480.08,197.07Z" style="fill:#fff"></path><path d="M467,191.22a.5.5,0,0,1,0-1l20-.2a.53.53,0,0,1,.51.5.5.5,0,0,1-.5.5l-20,.2Z" style="fill:#fff"></path><rect x="432.35" y="259.3" width="49.13" height="11.22" rx="3.77" style="fill:#e0e0e0"></rect><rect x="432.35" y="237.98" width="49.13" height="11.22" rx="3.77" style="fill:#e0e0e0"></rect><rect x="427.08" y="291.79" width="91.12" height="30.73" rx="12.36" style="fill:#FF725E"></rect><path d="M470.84,305.7c0,1.54-1.16,2.5-3,2.5h-1.18V310h-1.92v-6.78h3.1C469.68,303.19,470.84,304.15,470.84,305.7Zm-1.93,0c0-.63-.4-1-1.2-1h-1.06v2h1.06C468.51,306.69,468.91,306.32,468.91,305.7Z" style="fill:#fff"></path><path d="M476,308.66h-2.87l-.53,1.31h-2l3-6.78h1.89l3,6.78h-2Zm-.56-1.42-.87-2.17-.87,2.17Z" style="fill:#fff"></path><path d="M482.26,307.54V310h-1.92v-2.46l-2.58-4.32h2l1.61,2.69,1.61-2.69h1.86Z" style="fill:#fff"></path><path d="M384.83,359.79c-.15,0-.26-50.81-.26-113.46s.11-113.47.26-113.47.26,50.8.26,113.47S385,359.79,384.83,359.79Z" style="fill:#ebebeb"></path><circle cx="259.93" cy="179.84" r="10.58" transform="translate(41.21 408.02) rotate(-80.89)" style="fill:#FF725E"></circle><path d="M259,184.09a1,1,0,0,1-.62-.21L254.66,181a1,1,0,0,1,1.23-1.58l3,2.34,5-5.79a1,1,0,0,1,1.52,1.3l-5.59,6.51A1,1,0,0,1,259,184.09Z" style="fill:#fff"></path><circle cx="259.93" cy="273.77" r="10.58" transform="translate(-83.53 117.09) rotate(-21.96)" style="fill:#455a64"></circle><path d="M259,278a1,1,0,0,1-.62-.21l-3.73-2.92a1,1,0,0,1,1.23-1.58l3,2.34,5-5.79a1,1,0,0,1,1.52,1.3l-5.59,6.51A1,1,0,0,1,259,278Z" style="fill:#fff"></path><rect x="503.61" y="237.98" width="12.57" height="10.64" rx="4.28" style="fill:#e0e0e0"></rect><rect x="504.18" y="260.35" width="12.57" height="10.64" rx="4.28" style="fill:#e0e0e0"></rect><path d="M146.66,99.89h36.11a0,0,0,0,1,0,0v20.63A14.53,14.53,0,0,1,168.24,135h-7a14.53,14.53,0,0,1-14.53-14.53V99.89A0,0,0,0,1,146.66,99.89Z" style="fill:#FF725E"></path><path d="M182.77,99.89h36.11a0,0,0,0,1,0,0v20.63A14.53,14.53,0,0,1,204.35,135h-7a14.53,14.53,0,0,1-14.53-14.53V99.89A0,0,0,0,1,182.77,99.89Z" style="fill:#FF725E"></path><path d="M218.88,99.89H255a0,0,0,0,1,0,0v20.63A14.53,14.53,0,0,1,240.46,135h-7a14.53,14.53,0,0,1-14.53-14.53V99.89A0,0,0,0,1,218.88,99.89Z" style="fill:#FF725E"></path><path d="M255,99.89h36.29a0,0,0,0,1,0,0v20.63A14.53,14.53,0,0,1,276.75,135h-7.22A14.53,14.53,0,0,1,255,120.51V99.89A0,0,0,0,1,255,99.89Z" style="fill:#FF725E"></path><path d="M291.28,99.89h36.11a0,0,0,0,1,0,0v20.63A14.53,14.53,0,0,1,312.86,135h-7a14.53,14.53,0,0,1-14.53-14.53V99.89A0,0,0,0,1,291.28,99.89Z" style="fill:#FF725E"></path><path d="M327.39,99.89H363.5a0,0,0,0,1,0,0v20.63A14.53,14.53,0,0,1,349,135h-7a14.53,14.53,0,0,1-14.53-14.53V99.89A0,0,0,0,1,327.39,99.89Z" style="fill:#FF725E"></path><path d="M363.5,99.89h36.11a0,0,0,0,1,0,0v20.63A14.53,14.53,0,0,1,385.08,135h-7a14.53,14.53,0,0,1-14.53-14.53V99.89A0,0,0,0,1,363.5,99.89Z" style="fill:#FF725E"></path><path d="M399.61,99.89h36.71a0,0,0,0,1,0,0v20.63A14.53,14.53,0,0,1,421.79,135h-7.65a14.53,14.53,0,0,1-14.53-14.53V99.89A0,0,0,0,1,399.61,99.89Z" style="fill:#FF725E"></path><path d="M435.9,99.89H472a0,0,0,0,1,0,0v20.63A14.53,14.53,0,0,1,457.47,135h-7a14.53,14.53,0,0,1-14.53-14.53V99.89A0,0,0,0,1,435.9,99.89Z" style="fill:#FF725E"></path><path d="M472,99.89h36.11a0,0,0,0,1,0,0v20.63A14.53,14.53,0,0,1,493.59,135h-7A14.53,14.53,0,0,1,472,120.51V99.89A0,0,0,0,1,472,99.89Z" style="fill:#FF725E"></path><path d="M508.12,99.89h36.11a0,0,0,0,1,0,0v20.63A14.53,14.53,0,0,1,529.7,135h-7a14.53,14.53,0,0,1-14.53-14.53V99.89A0,0,0,0,1,508.12,99.89Z" style="fill:#FF725E"></path><path d="M544.23,99.89h36.11a0,0,0,0,1,0,0v20.63A14.53,14.53,0,0,1,565.81,135h-7a14.53,14.53,0,0,1-14.53-14.53V99.89A0,0,0,0,1,544.23,99.89Z" style="fill:#FF725E"></path><g style="opacity:0.30000000000000004"><path d="M182.77,99.89h36.11a0,0,0,0,1,0,0v20.63A14.53,14.53,0,0,1,204.35,135h-7a14.53,14.53,0,0,1-14.53-14.53V99.89A0,0,0,0,1,182.77,99.89Z" style="fill:#fff"></path></g><g style="opacity:0.30000000000000004"><path d="M255,99.89h36.29a0,0,0,0,1,0,0v20.63A14.53,14.53,0,0,1,276.75,135h-7.22A14.53,14.53,0,0,1,255,120.51V99.89A0,0,0,0,1,255,99.89Z" style="fill:#fff"></path></g><g style="opacity:0.30000000000000004"><path d="M327.39,99.89H363.5a0,0,0,0,1,0,0v20.63A14.53,14.53,0,0,1,349,135h-7a14.53,14.53,0,0,1-14.53-14.53V99.89A0,0,0,0,1,327.39,99.89Z" style="fill:#fff"></path></g><g style="opacity:0.30000000000000004"><path d="M399.61,99.89h36.71a0,0,0,0,1,0,0v20.63A14.53,14.53,0,0,1,421.79,135h-7.65a14.53,14.53,0,0,1-14.53-14.53V99.89A0,0,0,0,1,399.61,99.89Z" style="fill:#fff"></path></g><g style="opacity:0.30000000000000004"><path d="M472,99.89h36.11a0,0,0,0,1,0,0v20.63A14.53,14.53,0,0,1,493.59,135h-7A14.53,14.53,0,0,1,472,120.51V99.89A0,0,0,0,1,472,99.89Z" style="fill:#fff"></path></g><g style="opacity:0.30000000000000004"><path d="M544.23,99.89h36.11a0,0,0,0,1,0,0v20.63A14.53,14.53,0,0,1,565.81,135h-7a14.53,14.53,0,0,1-14.53-14.53V99.89A0,0,0,0,1,544.23,99.89Z" style="fill:#fff"></path></g><path d="M182.77,123.25c-.14,0-.26-5.23-.26-11.68s.12-11.68.26-11.68.26,5.23.26,11.68S182.92,123.25,182.77,123.25Z" style="fill:#263238"></path><path d="M218.62,123.25c-.14,0-.26-5.23-.26-11.68s.12-11.68.26-11.68.26,5.23.26,11.68S218.77,123.25,218.62,123.25Z" style="fill:#263238"></path><path d="M255,123.25c-.14,0-.26-5.23-.26-11.68s.12-11.68.26-11.68.26,5.23.26,11.68S255.14,123.25,255,123.25Z" style="fill:#263238"></path><path d="M291.28,123c-.15,0-.26-5.24-.26-11.69s.11-11.68.26-11.68.26,5.23.26,11.68S291.42,123,291.28,123Z" style="fill:#263238"></path><path d="M327.39,122.72c-.14,0-.26-5.11-.26-11.42s.12-11.41.26-11.41.26,5.11.26,11.41S327.53,122.72,327.39,122.72Z" style="fill:#263238"></path><path d="M363.83,122.31c-.14,0-.26-5.11-.26-11.41s.12-11.42.26-11.42.27,5.11.27,11.42S364,122.31,363.83,122.31Z" style="fill:#263238"></path><path d="M399.61,121.9c-.14,0-.26-4.93-.26-11s.12-11,.26-11,.26,4.92.26,11S399.75,121.9,399.61,121.9Z" style="fill:#263238"></path><path d="M436.11,121.9c-.14,0-.26-4.93-.26-11s.12-11,.26-11,.26,4.92.26,11S436.25,121.9,436.11,121.9Z" style="fill:#263238"></path><path d="M472,121.9c-.15,0-.26-4.93-.26-11s.11-11,.26-11,.26,4.92.26,11S472.15,121.9,472,121.9Z" style="fill:#263238"></path><path d="M508.27,121.9c-.14,0-.26-4.93-.26-11s.12-11,.26-11,.26,4.92.26,11S508.41,121.9,508.27,121.9Z" style="fill:#263238"></path><path d="M544.54,121.9c-.15,0-.26-4.93-.26-11s.11-11,.26-11,.26,4.92.26,11S544.68,121.9,544.54,121.9Z" style="fill:#263238"></path></g><g id="freepik--Bags--inject-24"><path d="M574.52,320.31s-.09-.62-.3-1.72a21.68,21.68,0,0,0-1.38-4.53,17.31,17.31,0,0,0-3.91-5.74,10.93,10.93,0,0,0-15.36-.05,17.16,17.16,0,0,0-3.93,5.73,21.73,21.73,0,0,0-1.4,4.52c-.21,1.1-.26,1.72-.31,1.72a2.32,2.32,0,0,1,0-.46c0-.3.06-.73.14-1.29a19.53,19.53,0,0,1,1.28-4.61,17.07,17.07,0,0,1,3.95-5.89,11.23,11.23,0,0,1,15.89.05,17.25,17.25,0,0,1,3.92,5.91,19.93,19.93,0,0,1,1.26,4.61c.09.56.12,1,.14,1.3A1.73,1.73,0,0,1,574.52,320.31Z" style="fill:#455a64"></path><path d="M579.11,320.31s-.09-.62-.3-1.72a21.68,21.68,0,0,0-1.38-4.53,17.31,17.31,0,0,0-3.91-5.74,10.91,10.91,0,0,0-15.35-.05,17.06,17.06,0,0,0-3.94,5.73,21.73,21.73,0,0,0-1.4,4.52c-.21,1.1-.26,1.72-.3,1.72a1.38,1.38,0,0,1,0-.46c0-.3.06-.73.14-1.29a20,20,0,0,1,1.28-4.61A17.07,17.07,0,0,1,557.9,308a11.23,11.23,0,0,1,15.89.05,17.25,17.25,0,0,1,3.92,5.91,19.93,19.93,0,0,1,1.26,4.61c.09.56.12,1,.14,1.3A1.73,1.73,0,0,1,579.11,320.31Z" style="fill:#455a64"></path><polygon points="534.8 318.67 586.64 318.27 587.77 388.95 529.6 388.95 534.8 318.67" style="fill:#ebebeb"></polygon><polygon points="586.64 318.27 593.15 318.27 598.76 388.95 587.77 388.95 586.64 318.27" style="fill:#e0e0e0"></polygon><rect x="541.71" y="346.1" width="33.94" height="5.69" style="fill:#fff"></rect><path d="M560,334.46a31.4,31.4,0,0,0-1.54-6.44,18.19,18.19,0,0,0-3.54-5.92,9,9,0,0,0-13.83-.05,17.82,17.82,0,0,0-3.56,5.9,31.47,31.47,0,0,0-1.56,6.43,1.4,1.4,0,0,1,0-.47,12.92,12.92,0,0,1,.12-1.34,22.46,22.46,0,0,1,1.14-4.77,18.07,18.07,0,0,1,3.57-6.1,9.31,9.31,0,0,1,14.41.05,18.17,18.17,0,0,1,3.55,6.12,22.53,22.53,0,0,1,1.13,4.78A12.35,12.35,0,0,1,560,334,1.4,1.4,0,0,1,560,334.46Z" style="fill:#263238"></path><path d="M564.16,334.46a31.4,31.4,0,0,0-1.54-6.44,18,18,0,0,0-3.54-5.92,9,9,0,0,0-13.83-.05,17.82,17.82,0,0,0-3.56,5.9,31.47,31.47,0,0,0-1.56,6.43,1.4,1.4,0,0,1,0-.47,12.92,12.92,0,0,1,.12-1.34,22.46,22.46,0,0,1,1.14-4.77,18.07,18.07,0,0,1,3.57-6.1,9.31,9.31,0,0,1,14.41.05,18,18,0,0,1,3.55,6.12,22.53,22.53,0,0,1,1.13,4.78c.07.58.11,1,.12,1.34A1.53,1.53,0,0,1,564.16,334.46Z" style="fill:#263238"></path><polygon points="522.02 331.67 568.9 331.34 569.92 389.5 517.32 389.5 522.02 331.67" style="fill:#FF725E"></polygon><polygon points="568.9 331.34 574.78 331.34 579.85 389.5 569.92 389.5 568.9 331.34" style="fill:#FF725E"></polygon><g style="opacity:0.30000000000000004"><polygon points="568.9 331.34 574.78 331.34 579.85 389.5 569.92 389.5 568.9 331.34"></polygon></g><rect x="530.22" y="351.09" width="30.69" height="5.88" style="fill:#fff"></rect></g><g id="freepik--Gift--inject-24"><path d="M201.74,316.72s-12.8.74-13.83,3c0,0-.17,9.42,8.89,18.91L195,342.46v6.28c4.21-8.16,8.91-20.66,8.91-20.66S204.12,319.3,201.74,316.72Z" style="fill:#455a64"></path><g style="opacity:0.30000000000000004"><path d="M201.28,317.55s-4.47,11.6-1.73,19.95C199.55,337.5,205.69,327.25,201.28,317.55Z"></path></g><path d="M221.41,332.34S215.47,321,213,321c0,0-8.65,3.73-13.58,15.88l-4.25,0s-2.26-9.76-13.63-15.12c0,0-6.49,11.69-6.71,11.57a23.12,23.12,0,0,0,14.61,6.13c9.17.48,22.5-.38,22.5-.38S220,335.57,221.41,332.34Z" style="fill:#455a64"></path><g style="opacity:0.30000000000000004"><path d="M193,338.37s-9.59-5.53-17.34-5C175.62,333.35,184.6,340.92,193,338.37Z"></path></g><g style="opacity:0.30000000000000004"><path d="M220.46,332.26s-12.41.7-18.9,6.63C201.56,338.89,213.43,340.27,220.46,332.26Z"></path></g><polygon points="240.07 338.96 236.68 389.93 158.01 389.19 157.39 338.19 240.07 338.96" style="fill:#FF725E"></polygon><g style="opacity:0.30000000000000004"><polygon points="225.14 338.82 224.66 389.82 236.68 389.93 240.07 338.96 225.14 338.82"></polygon></g><polygon points="234.16 338.91 231.68 389.88 228.94 389.86 229.42 338.87 234.16 338.91" style="fill:#455a64"></polygon><rect x="166.17" y="360.73" width="50.99" height="6.56" transform="translate(-174.12 552.26) rotate(-89.46)" style="fill:#455a64"></rect><rect x="157.66" y="360.65" width="80.64" height="4.95" style="fill:#455a64"></rect></g><g id="freepik--Character--inject-24"><path d="M318.78,177.06a71.72,71.72,0,0,1-.68-12.33A25,25,0,0,1,321.47,153c.33-.53,2.93-4,3.53-3.83.43.13-1.42,3.5-1.28,3.92a21.12,21.12,0,0,1-.11,12.59,55.93,55.93,0,0,1-4.83,11.42" style="fill:#263238"></path><path d="M314.48,197.76l7-36.2c1.72-10.2,9.08-17.69,19.23-15.69l.93.24a18.48,18.48,0,0,1,13.58,21.07c-1.54,8.83-3.35,18.56-4.61,23.19C348,199.94,338,199,338,199s-2.43,10.85-3,13.7l-14.16-4.94-3.42-1.08Z" style="fill:#ffbf9d"></path><path d="M338,199A24,24,0,0,1,326.48,192s1.15,8,11,9.61Z" style="fill:#ff9a6c"></path><path d="M350.58,176.09a1.41,1.41,0,0,1-1.68,1,1.35,1.35,0,0,1-1.1-1.6,1.42,1.42,0,0,1,1.68-1A1.35,1.35,0,0,1,350.58,176.09Z" style="fill:#263238"></path><path d="M352.1,170.89c-.21.13-1.05-.9-2.53-1.28s-2.75.08-2.86-.14.2-.38.76-.6a3.91,3.91,0,0,1,2.35-.11,3.78,3.78,0,0,1,2,1.24C352.14,170.47,352.21,170.83,352.1,170.89Z" style="fill:#263238"></path><path d="M337.37,173.13a1.42,1.42,0,0,1-1.69,1,1.35,1.35,0,0,1-1.09-1.6,1.41,1.41,0,0,1,1.68-1A1.35,1.35,0,0,1,337.37,173.13Z" style="fill:#263238"></path><path d="M337.81,167.82c-.22.13-1.06-.91-2.54-1.28s-2.75.08-2.86-.15.2-.37.76-.6a3.85,3.85,0,0,1,2.35-.1,3.74,3.74,0,0,1,2,1.24C337.84,167.39,337.91,167.76,337.81,167.82Z" style="fill:#263238"></path><path d="M339.91,180.2a10.87,10.87,0,0,1,2.51.19c.38.06.76.08.89-.16a2,2,0,0,0,0-1.19c-.12-1-.24-2-.37-3.16-.5-4.48-.75-8.13-.57-8.15s.73,3.6,1.22,8.09c.11,1.1.22,2.16.32,3.16a2.25,2.25,0,0,1-.19,1.53.94.94,0,0,1-.76.39,2.19,2.19,0,0,1-.66-.07A9.57,9.57,0,0,1,339.91,180.2Z" style="fill:#263238"></path><path d="M340,162.22c-.3.32-1.63-.44-3.36-.93s-3.26-.6-3.33-1c0-.21.35-.47,1-.62a5.92,5.92,0,0,1,2.72.16,5.8,5.8,0,0,1,2.38,1.34C339.94,161.63,340.12,162.06,340,162.22Z" style="fill:#263238"></path><path d="M353.56,165.32c-.39.26-1.51-.38-3-.75s-2.73-.42-2.93-.84c-.08-.2.2-.49.81-.68a4.85,4.85,0,0,1,2.54,0,4.8,4.8,0,0,1,2.2,1.25C353.65,164.8,353.74,165.19,353.56,165.32Z" style="fill:#263238"></path><path d="M320.44,168.88c-.14-.12-6.09-3.66-7.58,3s5.47,6.75,5.52,6.56S320.44,168.88,320.44,168.88Z" style="fill:#ffbf9d"></path><path d="M316.92,175.44s-.13.05-.35.1a1.17,1.17,0,0,1-.86-.18,2.9,2.9,0,0,1-.75-2.85,3.87,3.87,0,0,1,.7-1.58,1.35,1.35,0,0,1,1.06-.69.59.59,0,0,1,.61.47c.05.2,0,.32,0,.34s.17-.08.17-.36a.72.72,0,0,0-.16-.47.89.89,0,0,0-.6-.32,1.66,1.66,0,0,0-1.44.76,3.94,3.94,0,0,0-.81,1.75,3.05,3.05,0,0,0,1,3.24,1.21,1.21,0,0,0,1.09.06C316.87,175.6,316.94,175.46,316.92,175.44Z" style="fill:#ff9a6c"></path><path d="M353.32,155.26c1.2-.36-1.27-4.53-3.65-6.3-3.6-2.67-9.45-5.09-13.35-4.84-4.7.3-8.85,1.71-11.94,5.26a26.66,26.66,0,0,0-5.8,12.69,8,8,0,0,0,.06,4.25c.61,1.67,2.19,3,1.67,5a2.81,2.81,0,0,0,.26,2.18c.93,1.55,2.68.66,3.62-.41,2-2.29,2.85-5.35,3.62-8.3a19.75,19.75,0,0,0,.94-6.4c-.08-1.18-.38-2.34-.4-3.51a4.12,4.12,0,0,1,1.18-3.22,4.53,4.53,0,0,1,.66-.42,7.07,7.07,0,0,1,7.15.17c3.45,2.13,9.4,5.47,11.34,4.57a10.44,10.44,0,0,0,3.62-2.38Z" style="fill:#263238"></path><path d="M335,180.12c.23,0-.09,1.56,1,2.92s2.74,1.53,2.71,1.74-.43.22-1.12.1a3.87,3.87,0,0,1-2.27-1.37,3.38,3.38,0,0,1-.74-2.43C334.68,180.43,334.93,180.09,335,180.12Z" style="fill:#263238"></path><path d="M351.62,260.88l25.06,10.22-3.08,11.75-25.75-5.29a15.38,15.38,0,0,1-12.43-9.43l-8.87-21.53,14.2-13.5Z" style="fill:#ffbf9d"></path><path d="M376.18,285.52c2.58,1,5.43,2.15,5.43,2.15l2.58.92a3.5,3.5,0,0,1-.38.39,2.08,2.08,0,0,0-.65.8,1.64,1.64,0,0,0,.77,1.69,3.88,3.88,0,0,0,6.21-2.55,3.18,3.18,0,0,0,.71-.88c1.22-2.26-.54-5.56-.54-5.56l.95.19s2.47,1.7,1.73,6.63a3.13,3.13,0,0,0,.44,2.13,1.57,1.57,0,0,0,1.09.76c1.2.15,1.61-.66,2.11-3.73s0-6.21-1.49-7.71a20.82,20.82,0,0,0-2.12-2s8.65,1.26,9.2,1.32c1.6.17,3-.4,3.21-1.45.13-.68-.2-1.63-2.05-1.88-1.6-.22-17.72-4.54-17.72-4.54l-7.24-1.5-6.18-.26L370,279.8l1.77,1.91A8.52,8.52,0,0,0,376.18,285.52Z" style="fill:#ffbf9d"></path><path d="M378.83,272.21a2.28,2.28,0,0,0,.92,2.49c.74.6,1.66.94,2.44,1.48,2.33,1.63,3.12,4.91,5.53,6.43.34.21.82.37,1.09.09s.14-.7,0-1q-1.74-4.38-3.46-8.77" style="fill:#ffbf9d"></path><path d="M385.36,272.89a4.07,4.07,0,0,1,.47.91c.27.6.64,1.47,1.1,2.56l1.56,3.81.45,1.11a1.91,1.91,0,0,1,.21,1.39.8.8,0,0,1-.77.45,1.75,1.75,0,0,1-.74-.24,7.05,7.05,0,0,1-1.09-.87,35.84,35.84,0,0,1-3-4.11,7.19,7.19,0,0,0-1.49-1.52c-.54-.39-1.12-.67-1.63-1a3.34,3.34,0,0,1-1.79-2.17c-.12-.7.16-1,.17-1a2.72,2.72,0,0,0,0,1,3.27,3.27,0,0,0,1.77,1.89c.51.28,1.1.54,1.7.94A7.42,7.42,0,0,1,384,277.6a43.26,43.26,0,0,0,3,4,5.57,5.57,0,0,0,1,.79c.34.2.7.23.76,0s-.06-.61-.21-1l-.43-1.11c-.53-1.42-1-2.71-1.46-3.86s-.73-2-.94-2.61A3.46,3.46,0,0,1,385.36,272.89Z" style="fill:#ff9a6c"></path><path d="M390.28,282.35a4.1,4.1,0,0,1,1.59.8,3.06,3.06,0,0,1,.9,1.66,7.84,7.84,0,0,1,0,2.38,12.28,12.28,0,0,0-.1,2.47,4,4,0,0,0,.67,1.95,1.54,1.54,0,0,0,1.22.66.83.83,0,0,0,.5-.1,3.65,3.65,0,0,0-.49,0,1.5,1.5,0,0,1-1-.67,4,4,0,0,1-.55-1.83,13.65,13.65,0,0,1,.13-2.41,7.62,7.62,0,0,0-.07-2.49A3.13,3.13,0,0,0,392,283a2.8,2.8,0,0,0-1.25-.6A1,1,0,0,0,390.28,282.35Z" style="fill:#ff9a6c"></path><path d="M402.84,280.13a9.4,9.4,0,0,0-1.72-.27l-4.15-.52-4.14-.59a9.08,9.08,0,0,0-1.73-.2,8.4,8.4,0,0,0,1.68.44c1.06.22,2.52.47,4.15.69s3.1.36,4.17.43A8.16,8.16,0,0,0,402.84,280.13Z" style="fill:#ff9a6c"></path><path d="M388.07,284a2.73,2.73,0,0,0,.13.53,1.62,1.62,0,0,1-.11,1.34.83.83,0,0,1-.77.34,4.49,4.49,0,0,1-1.11-.23,1.93,1.93,0,0,0-1.38,0,1.62,1.62,0,0,0-.86,1.22,1.9,1.9,0,0,0,.41,1.44,2.43,2.43,0,0,0,1.12.8,7.44,7.44,0,0,0,2.22.27,4.51,4.51,0,0,0,1.49-.24,1,1,0,0,0,.46-.29s-.18.07-.51.16a5.06,5.06,0,0,1-1.44.13,8.32,8.32,0,0,1-2.12-.33,1.88,1.88,0,0,1-1.29-1.88,1.32,1.32,0,0,1,.67-1,1.68,1.68,0,0,1,1.15,0,4.44,4.44,0,0,0,1.19.21,1.11,1.11,0,0,0,1-.5,1.66,1.66,0,0,0,0-1.51C388.2,284.2,388.09,284,388.07,284Z" style="fill:#ff9a6c"></path><path d="M384.66,288.59s-.17-.09-.49,0a1.5,1.5,0,0,0-1,.88,2,2,0,0,0,.34,2,3.28,3.28,0,0,0,2.17,1.16,4,4,0,0,0,2.4-.42,3.7,3.7,0,0,0,1.44-1.38,3.4,3.4,0,0,0,.48-1.24c0-.32,0-.49,0-.49a6.13,6.13,0,0,1-.69,1.6,3.7,3.7,0,0,1-1.38,1.22,3.8,3.8,0,0,1-2.22.37,3,3,0,0,1-2-1,1.77,1.77,0,0,1-.36-1.69,1.42,1.42,0,0,1,.83-.84C384.48,288.6,384.66,288.62,384.66,288.59Z" style="fill:#ff9a6c"></path><path d="M379.64,281.83s.14-.29.1-.82a3.29,3.29,0,0,0-.86-2l-.12.28a7.88,7.88,0,0,0,1.18,0,7.42,7.42,0,0,0,3.84-1.28,19.38,19.38,0,0,1-3.87.94c-.4,0-.79,0-1.14,0h-.4l.27.28a3.47,3.47,0,0,1,.89,1.75C379.63,281.52,379.6,281.83,379.64,281.83Z" style="fill:#ff9a6c"></path><path d="M394.36,284c0-.09-.69.16-1.11.88s-.34,1.41-.25,1.4.16-.61.54-1.22S394.41,284.12,394.36,284Z" style="fill:#ff9a6c"></path><path d="M337.5,214.71s-1.35-8.46-1.23-7.88c.61,2.89,4.85,7.17,5.88,16.57.4,3.67,6.93,27.58,6.93,27.58L331,259.38l-1.14-20.27Z" style="fill:#FF725E"></path><path d="M465.48,342a31.2,31.2,0,0,0-2-6.15,17.74,17.74,0,0,0-3.87-5.49,8.76,8.76,0,0,0-13.44,1,17.38,17.38,0,0,0-3,6,30.29,30.29,0,0,0-1.05,6.37,1.59,1.59,0,0,1,0-.46c0-.3,0-.74,0-1.31a21.85,21.85,0,0,1,.77-4.72,17.52,17.52,0,0,1,3-6.19,9.07,9.07,0,0,1,14-1,17.85,17.85,0,0,1,3.89,5.69,22,22,0,0,1,1.45,4.56c.11.56.17,1,.2,1.29A2.27,2.27,0,0,1,465.48,342Z" style="fill:#263238"></path><path d="M469.51,341.66a31.2,31.2,0,0,0-2-6.15,17.58,17.58,0,0,0-3.87-5.49,8.75,8.75,0,0,0-13.44,1,17.47,17.47,0,0,0-3,6,31,31,0,0,0-1.05,6.36,1.29,1.29,0,0,1,0-.45,11.66,11.66,0,0,1,0-1.31,22.5,22.5,0,0,1,.77-4.72,17.52,17.52,0,0,1,3-6.19,9.07,9.07,0,0,1,14-1,17.69,17.69,0,0,1,3.89,5.69,22,22,0,0,1,1.45,4.56q.17.84.21,1.29A2.64,2.64,0,0,1,469.51,341.66Z" style="fill:#263238"></path><polygon points="428.36 342.01 473.88 338.28 479.11 394.71 428.01 398.55 428.36 342.01" style="fill:#FF725E"></polygon><polygon points="473.88 338.28 479.6 337.85 488.75 393.99 479.11 394.71 473.88 338.28" style="fill:#FF725E"></polygon><g style="opacity:0.30000000000000004"><polygon points="473.88 338.28 479.6 337.85 488.75 393.99 479.11 394.71 473.88 338.28"></polygon></g><rect x="437.91" y="359.17" width="29.9" height="5.73" transform="translate(-25.79 34.86) rotate(-4.29)" style="fill:#fff"></rect><path d="M407.35,308.65a27.15,27.15,0,0,0-1.28-5.38,15.32,15.32,0,0,0-3-4.94,7.5,7.5,0,0,0-11.54,0,14.84,14.84,0,0,0-3,4.92,27.07,27.07,0,0,0-1.31,5.37,1.91,1.91,0,0,1,0-.39c0-.25,0-.63.1-1.11a18.73,18.73,0,0,1,1-4,15,15,0,0,1,3-5.09,7.76,7.76,0,0,1,12,0,15.21,15.21,0,0,1,3,5.11,18.87,18.87,0,0,1,.95,4,9.76,9.76,0,0,1,.09,1.12A2,2,0,0,1,407.35,308.65Z" style="fill:#263238"></path><path d="M410.82,308.65a26.83,26.83,0,0,0-1.29-5.38,15.28,15.28,0,0,0-2.95-4.94,7.51,7.51,0,0,0-11.55,0,15.18,15.18,0,0,0-3,4.92,25.69,25.69,0,0,0-1.3,5.37s0-.13,0-.39a8.23,8.23,0,0,1,.1-1.11,18,18,0,0,1,.95-4,15.12,15.12,0,0,1,3-5.09,7.77,7.77,0,0,1,12,0,15.21,15.21,0,0,1,3,5.11,18.74,18.74,0,0,1,.94,4c.06.48.09.86.1,1.12A2,2,0,0,1,410.82,308.65Z" style="fill:#263238"></path><polygon points="375.65 306.32 414.76 306.05 415.62 354.58 371.72 354.58 375.65 306.32" style="fill:#455a64"></polygon><polygon points="414.76 306.05 419.68 306.05 423.9 354.58 415.62 354.58 414.76 306.05" style="fill:#455a64"></polygon><g style="opacity:0.30000000000000004"><polygon points="414.76 306.05 419.68 306.05 423.9 354.58 415.62 354.58 414.76 306.05"></polygon></g><rect x="382.49" y="322.53" width="25.61" height="4.9" style="fill:#fff"></rect><path d="M402.14,332.67s-11.54,1.53-12.32,3.63c0,0,.49,8.54,9.33,16.51l-1.36,3.62.42,5.69c3.26-7.68,6.66-19.31,6.66-19.31S404.47,334.84,402.14,332.67Z" style="fill:#e0e0e0"></path><g style="opacity:0.30000000000000004"><path d="M401.78,333.45s-3.26,10.81-.21,18.18C401.57,351.63,406.43,341.94,401.78,333.45Z"></path></g><path d="M421,345.47s-6.15-9.88-8.38-9.73c0,0-7.58,4-11.21,15.29l-3.86.26s-2.7-8.68-13.36-12.77c0,0-5.08,11-5.29,10.93A20.93,20.93,0,0,0,392.54,354c8.34-.19,20.34-1.87,20.34-1.87S420,348.49,421,345.47Z" style="fill:#e0e0e0"></path><g style="opacity:0.30000000000000004"><path d="M395.66,352.87s-9.06-4.36-16-3.37C379.62,349.5,388.27,355.74,395.66,352.87Z"></path></g><g style="opacity:0.30000000000000004"><path d="M420.14,345.47S409,347,403.48,352.76C403.48,352.76,414.32,353.2,420.14,345.47Z"></path></g><polygon points="438.35 350.21 438.74 396.57 367.46 401.25 363.45 355.12 438.35 350.21" style="fill:#FF725E"></polygon><g style="opacity:0.30000000000000004"><polygon points="424.82 351.09 427.85 397.29 438.74 396.57 438.35 350.21 424.82 351.09"></polygon></g><polygon points="432.99 350.56 434.2 396.87 431.73 397.03 428.7 350.84 432.99 350.56" style="fill:#f5f5f5"></polygon><rect x="393.25" y="353.02" width="5.95" height="46.29" transform="translate(-23.75 26.72) rotate(-3.75)" style="fill:#f5f5f5"></rect><rect x="365.28" y="372.69" width="73.2" height="4.49" transform="translate(-26.9 31.08) rotate(-4.29)" style="fill:#f5f5f5"></rect><path d="M373.49,400.82a.49.49,0,0,1-.49-.41l-18.34-91.94a.5.5,0,0,1,.39-.59.51.51,0,0,1,.59.4L374,400.22a.51.51,0,0,1-.39.59Z" style="fill:#e0e0e0"></path><path d="M389.31,399.94a.49.49,0,0,1-.49-.4l-16-85.69a.5.5,0,0,1,1-.19l16,85.69a.51.51,0,0,1-.4.59Z" style="fill:#e0e0e0"></path><path d="M404,399.09a.49.49,0,0,1-.49-.42l-12.46-84.42a.5.5,0,0,1,.42-.57.51.51,0,0,1,.57.42l12.46,84.42a.51.51,0,0,1-.42.57Z" style="fill:#e0e0e0"></path><path d="M420.69,399.44a.5.5,0,0,1-.49-.43l-12.13-82.16a.5.5,0,1,1,1-.14l12.13,82.15a.5.5,0,0,1-.42.57Z" style="fill:#e0e0e0"></path><path d="M436.83,396.35a.49.49,0,0,1-.49-.42l-11.16-75.62a.5.5,0,0,1,.42-.57.51.51,0,0,1,.57.42l11.16,75.62a.51.51,0,0,1-.42.57Z" style="fill:#e0e0e0"></path><path d="M453.67,398a.5.5,0,0,1-.49-.43L442,322.06a.5.5,0,0,1,1-.15l11.14,75.48a.5.5,0,0,1-.43.57Z" style="fill:#e0e0e0"></path><path d="M468.54,396.35a.49.49,0,0,1-.49-.45l-7.18-71a.49.49,0,0,1,.45-.54.51.51,0,0,1,.55.44l7.17,71a.5.5,0,0,1-.45.55Z" style="fill:#e0e0e0"></path><path d="M481,396.35a.5.5,0,0,1-.5-.48l-2.4-68.34a.5.5,0,0,1,.48-.52.52.52,0,0,1,.52.49l2.4,68.34a.5.5,0,0,1-.48.51Z" style="fill:#e0e0e0"></path><path d="M355.81,385.07l13.75-.68,33-1.65,39.79-2,34.4-1.71,11.39-.57c1.79-.09,3.62-.08,5.4-.27h.24c.8,0,.81-1.29,0-1.25l-13.75.68-33,1.64-39.79,2L372.84,383l-11.38.57c-1.8.09-3.63.07-5.41.27h-.24c-.8,0-.8,1.29,0,1.25Z" style="fill:#e0e0e0"></path><path d="M351.6,360.81l14.26.3,34.13.72,41.27.86,35.77.75,11.77.24c1.83,0,3.7.19,5.53.12h.25a.63.63,0,0,0,0-1.25l-14.27-.29-34.13-.72-41.26-.86-35.78-.75-11.76-.25c-1.83,0-3.7-.18-5.53-.11h-.25a.63.63,0,0,0,0,1.25Z" style="fill:#e0e0e0"></path><path d="M345.44,333.29l15,1.42,35.84,3.39,43.33,4.1,37.55,3.56,12.3,1.16c1.93.19,3.91.52,5.85.56l.26,0c.8.08.8-1.17,0-1.25l-15-1.42-35.84-3.39-43.33-4.1-37.55-3.56-12.3-1.16c-1.93-.18-3.91-.52-5.85-.55l-.26,0c-.8-.07-.8,1.18,0,1.25Z" style="fill:#e0e0e0"></path><path d="M364.28,404.29a7.78,7.78,0,0,1-7.63-6.18L337,306.52a2,2,0,0,1,2.22-2.36L497,328.35a2,2,0,0,1,1.67,2.07L495,390.28a7.82,7.82,0,0,1-7.38,7.32l-122.87,6.67Zm-22.81-95.8,19,88.79a3.84,3.84,0,0,0,4,3.06l122.87-6.68A3.86,3.86,0,0,0,491,390L494.64,332Z" style="fill:#e0e0e0"></path><path d="M364.28,404.29a7.78,7.78,0,0,1-7.63-6.18L337,306.52a2,2,0,0,1,2.22-2.36L497,328.35a2,2,0,0,1,1.67,2.07L495,390.28a7.82,7.82,0,0,1-7.38,7.32l-122.87,6.67Zm-22.81-95.8,19,88.79a3.84,3.84,0,0,0,4,3.06l122.87-6.68A3.86,3.86,0,0,0,491,390L494.64,332Z" style="fill:none"></path><path d="M341.47,308.49l.73.09,2.18.33,8.47,1.27,31.8,4.81,110,16.73.22,0V332c-.62,10-1.26,20.35-1.92,31.05q-.5,8-1,16.27-.25,4.11-.51,8.28l-.13,2.08a4.6,4.6,0,0,1-.54,2.12,4.18,4.18,0,0,1-3.67,2.15L402,398.55l-37.16,2a4.12,4.12,0,0,1-3.92-1.83,4.54,4.54,0,0,1-.48-1c-.1-.36-.16-.71-.24-1.05-.15-.7-.3-1.39-.44-2.08-.59-2.75-1.17-5.46-1.73-8.11q-1.69-7.95-3.25-15.24c-8.16-38.63-13-61.32-13.26-62.72.31,1.4,5.24,24.1,13.63,62.74q1.56,7.26,3.28,15.18.84,4,1.74,8.07c.14.69.29,1.38.44,2.07a5,5,0,0,0,.67,1.93,3.67,3.67,0,0,0,3.54,1.63l37.16-2,85.15-4.65a3.68,3.68,0,0,0,3.25-1.88,4,4,0,0,0,.47-1.9l.13-2.08q.26-4.17.51-8.29.51-8.24,1-16.26c.67-10.7,1.32-21.09,1.94-31.06l.21.27-109.79-17L353,310.3,344.44,309l-2.21-.36Z" style="fill:#263238"></path><path d="M364.28,404.29l18.26-1.09,49.8-2.78,34.39-1.9,19.16-1.06c.82,0,1.66-.07,2.45-.17a7.72,7.72,0,0,0,2.29-.76,7.54,7.54,0,0,0,3.36-3.45,7.46,7.46,0,0,0,.69-2.36c.09-.82.12-1.7.18-2.55.11-1.72.21-3.44.32-5.18.86-13.89,1.76-28.48,2.69-43.6l.36-5.69c0-1,.11-1.91.17-2.87a2.17,2.17,0,0,0-.14-1.28,1.74,1.74,0,0,0-.89-.84,9.68,9.68,0,0,0-1.36-.26l-1.43-.22-2.88-.44-5.77-.88-23.52-3.61-89.56-13.75-20.11-3.09L343.11,305l-2.36-.36-1.17-.18a2.37,2.37,0,0,0-1.09,0,1.75,1.75,0,0,0-1.28,1.49,3,3,0,0,0,.13,1.08l.24,1.14c2.59,12.11,5,23.39,7.19,33.69,4.38,20.59,7.92,37.25,10.37,48.78l1.62,7.66a7.71,7.71,0,0,0,6.33,5.91c.78.14,1.19.1,1.19.13H364a7.4,7.4,0,0,1-.9-.07,7.75,7.75,0,0,1-6.47-5.94q-.72-3.33-1.67-7.65c-2.49-11.52-6.08-28.17-10.53-48.75-2.22-10.29-4.64-21.57-7.25-33.67l-.24-1.14a3.41,3.41,0,0,1-.15-1.22,2.2,2.2,0,0,1,1.61-1.86,2.82,2.82,0,0,1,1.26,0l1.18.18,2.36.36,9.63,1.48,20.12,3.07,89.56,13.71L486,326.4l5.78.88,2.87.44,1.44.22a8.65,8.65,0,0,1,1.47.29,2.23,2.23,0,0,1,1.16,1.1,2.76,2.76,0,0,1,.2,1.53l-.18,2.87-.36,5.69c-.94,15.12-1.85,29.71-2.72,43.6-.11,1.74-.22,3.46-.33,5.18-.06.86-.08,1.7-.18,2.57a8.26,8.26,0,0,1-.73,2.51,8,8,0,0,1-3.57,3.66,7.86,7.86,0,0,1-2.44.8c-.86.12-1.67.13-2.5.18l-19.16,1-34.39,1.83-49.81,2.63-13.55.68-3.52.17C364.69,404.3,364.28,404.29,364.28,404.29Z" style="fill:#263238"></path><path d="M271.21,297.14s-2.29,9.15-2.06,15.09,3.2,15.55,3.2,15.55l-2.53,40.72h0s-14,13.31-18.53,19.16c-4.1,5.33-31.76,36.48-31.76,36.48l21,17.74s34.27-34.11,41.36-41.89S297,386.86,300,376.35s9.63-49,9.63-49l7.94-14.4-2-13.18Z" style="fill:#263238"></path><path d="M287.27,375.88c-.33,1.65-18.72,75.19-18.72,75.19l28.45,6.8c-.57-.87,6-27.35,11.46-48.43,5-19.41,7.82-25.66,9.11-33.56s7.35-54,7.11-56.92a20.49,20.49,0,0,1,1.26-7l-24.19-5.84Z" style="fill:#263238"></path><path d="M314.41,318.65a3.24,3.24,0,0,1-.25.39l-.79,1.14-3.1,4.38,0-.05c-.91,5.78-2.43,15-4.55,26.46-1.07,5.71-2.28,12-3.78,18.61q-.56,2.49-1.23,5c-.2.85-.46,1.69-.71,2.54s-.54,1.71-.86,2.56a9.9,9.9,0,0,1-1.31,2.41c-.52.75-1.06,1.49-1.64,2.21-1.13,1.45-2.33,2.85-3.55,4.27-6.78,7.75-13.6,14.8-19.8,21.2S261,421.89,256.19,426.65s-8.67,8.57-11.38,11.2l-3.12,3-.83.77c-.18.18-.28.26-.29.25a2.15,2.15,0,0,1,.26-.28c.19-.21.45-.47.78-.81l3.06-3.09,11.26-11.31c4.75-4.79,10.39-10.5,16.58-16.91s13-13.47,19.76-21.21c1.21-1.41,2.41-2.82,3.53-4.25a18.27,18.27,0,0,0,2.88-4.5,24.52,24.52,0,0,0,.85-2.5c.24-.85.51-1.69.71-2.53q.67-2.53,1.23-5c1.52-6.61,2.74-12.87,3.84-18.58,2.17-11.42,3.76-20.65,4.76-26.41v-.05l3.19-4.32.83-1.1A2,2,0,0,1,314.41,318.65Z" style="fill:#455a64"></path><path d="M247.16,431.94l-13.9,14.31s9.88,18.95,7.57,21.84l-28.73-26,20.75-23.2Z" style="fill:#263238"></path><path d="M225.5,437a1.58,1.58,0,0,0-2,.61,1.52,1.52,0,0,0,.58,2,1.68,1.68,0,0,0,2.14-.66,1.58,1.58,0,0,0-.84-2" style="fill:#e0e0e0"></path><path d="M212.1,442.13l2.18-2.26L241,465.61s.78,1.71-.18,2.48Z" style="fill:#455a64"></path><path d="M233.85,446.53c-.13.14-.89-.43-2-.61s-2,.09-2.07-.09.86-.79,2.19-.56S234,446.43,233.85,446.53Z" style="fill:#fff"></path><path d="M235.74,450.5c-.09.16-.91-.15-1.93,0s-1.71.66-1.85.53.5-1,1.76-1.19S235.86,450.36,235.74,450.5Z" style="fill:#fff"></path><path d="M234.19,455.65c-.15-.08.29-1,1.34-1.4s2-.16,1.94,0-.82.22-1.68.59S234.34,455.76,234.19,455.65Z" style="fill:#fff"></path><path d="M236.66,442.91c-.17.08-.64-.7-1.48-1.36s-1.69-1-1.66-1.16,1.09-.15,2.07.65S236.83,442.87,236.66,442.91Z" style="fill:#fff"></path><path d="M293.63,445.87l-3.31,15.49-.1,3s20,7.39,20.28,11.09l-38.72.08L271.7,464l4.17-20.45Z" style="fill:#263238"></path><path d="M278.24,462.68a1.58,1.58,0,0,0-1.08,1.81,1.51,1.51,0,0,0,1.78,1.09,1.66,1.66,0,0,0,1.14-1.92,1.57,1.57,0,0,0-2-.93" style="fill:#e0e0e0"></path><path d="M271.78,475.5l.1-3.14,37.09,1.1s1.73.74,1.53,2Z" style="fill:#455a64"></path><path d="M290.85,464.14c0,.18-1,.27-1.88.88s-1.42,1.41-1.6,1.33.11-1.16,1.25-1.88S290.89,464,290.85,464.14Z" style="fill:#fff"></path><path d="M294.91,465.81c0,.18-.77.5-1.41,1.3s-.83,1.65-1,1.64-.31-1.07.5-2.05S294.91,465.63,294.91,465.81Z" style="fill:#fff"></path><path d="M297.23,470.66c-.17,0-.44-.9,0-1.94s1.36-1.45,1.44-1.29-.46.71-.85,1.57S297.42,470.64,297.23,470.66Z" style="fill:#fff"></path><path d="M290.5,459.57c-.08.17-.95-.08-2,0s-1.9.41-2,.25.7-.84,2-.91S290.59,459.42,290.5,459.57Z" style="fill:#fff"></path><path d="M342.27,459.91a1.86,1.86,0,0,1-1-.3,1.88,1.88,0,0,1-.58-2.6l28.41-44.54a21.39,21.39,0,0,1,28.55-7.13l72.59,40.91.14.08c4.37,3,6.76,6.22,7.11,9.59a1.89,1.89,0,1,1-3.75.39c-.23-2.2-2.05-4.5-5.42-6.82l-72.52-40.87a17.64,17.64,0,0,0-23.52,5.88L343.86,459A1.89,1.89,0,0,1,342.27,459.91Z" style="fill:#e0e0e0"></path><path d="M342.27,459.91a2.1,2.1,0,0,0,.79-.2,1.85,1.85,0,0,0,.75-.67c.22-.34.47-.75.75-1.2l5-8c4.41-6.94,10.79-17,18.71-29.49,1-1.56,2-3.16,3.05-4.79a20.84,20.84,0,0,1,3.69-4.7,17.83,17.83,0,0,1,18.21-3.66,19.34,19.34,0,0,1,3.12,1.48l3,1.71L412,417.48l56.46,31.78h0a20.66,20.66,0,0,1,3.31,2.79,7.9,7.9,0,0,1,2.17,3.9,2.26,2.26,0,0,0,.27,1,1.55,1.55,0,0,0,.7.64,1.6,1.6,0,0,0,1.79-.26,1.65,1.65,0,0,0,.49-.82,2.54,2.54,0,0,0,0-1,9.22,9.22,0,0,0-.63-2.1,17.25,17.25,0,0,0-6.17-6.72c-2.64-1.55-5.38-3-8-4.56l-15.78-8.89-29.81-16.82-13.88-7.84c-2.26-1.24-4.46-2.58-6.66-3.7A21.2,21.2,0,0,0,375.88,406a21,21,0,0,0-4.93,4.28,48.89,48.89,0,0,0-3.56,5.2l-21.08,32.9c-2.49,3.89-4.47,6.89-5.73,8.94a1.85,1.85,0,0,0,0,1.52,2,2,0,0,0,.77.82,2,2,0,0,0,.89.25H342a1.87,1.87,0,0,1-.68-.21,1.91,1.91,0,0,1-.81-.83,1.93,1.93,0,0,1-.06-1.59c1.25-2.1,3.2-5.1,5.65-9,5-7.8,12.11-19.06,20.95-33a49.82,49.82,0,0,1,3.58-5.25,21.55,21.55,0,0,1,5-4.37,21.59,21.59,0,0,1,20.72-1.22c2.26,1.15,4.42,2.45,6.69,3.7L417,416l29.83,16.79,15.78,8.89c2.68,1.52,5.36,3,8.08,4.58a17.81,17.81,0,0,1,6.35,6.95,10,10,0,0,1,.66,2.22,2.93,2.93,0,0,1,0,1.22,2,2,0,0,1-.64,1.08,2.15,2.15,0,0,1-3.29-.49,2.8,2.8,0,0,1-.33-1.15,7.37,7.37,0,0,0-2-3.64,20.27,20.27,0,0,0-3.23-2.71h0l-56.42-31.82-12.57-7.1-3-1.71a18.94,18.94,0,0,0-3.05-1.46,17.42,17.42,0,0,0-17.8,3.54,20.54,20.54,0,0,0-3.64,4.61c-1,1.64-2.06,3.23-3.06,4.79L349.76,450l-5.11,7.93c-.3.45-.55.85-.78,1.2a1.86,1.86,0,0,1-.78.66A1.54,1.54,0,0,1,342.27,459.91Z" style="fill:#263238"></path><circle cx="340.92" cy="469.74" r="8.87" style="fill:#263238"></circle><path d="M346.54,460.49a1.27,1.27,0,0,0,.37-.9v-.76a1.28,1.28,0,0,0-1.28-1.28h-8.22a1.28,1.28,0,0,0-1.28,1.28v.76a1.23,1.23,0,0,0,.55,1l-3.9.74v2.13L337,465l2.41,6a1.88,1.88,0,0,0,3.48,0l2.41-6.06,4.22-1v-2.75Z" style="fill:#e0e0e0"></path><path d="M346.54,460.49s.3,0,.82.13,1.25.2,2.17.38l.09,0v.1c0,.79,0,1.71,0,2.75V464l-.13,0-4.2,1.06.14-.12c-.42,1.06-.86,2.2-1.33,3.41l-.74,1.85c-.13.33-.23.63-.39,1a2.12,2.12,0,0,1-3.88-.24c-.15-.35-.29-.7-.43-1.06q-.87-2.13-1.77-4.37l-.19-.46.15.14-4.21-1.51-.17-.06v-.18c0-.72,0-1.43,0-2.13v-.21l.2,0,3.9-.72-.09.43A1.51,1.51,0,0,1,336,460a4.28,4.28,0,0,1-.05-.92,1.69,1.69,0,0,1,.18-.91,1.45,1.45,0,0,1,.68-.66,1.71,1.71,0,0,1,.87-.14h2.28l5,.06a5,5,0,0,1,1,.06,1.38,1.38,0,0,1,.77.54,1.28,1.28,0,0,1,.25.77c0,.23,0,.44,0,.64,0,.82-.47,1.1-.45,1.07a1.54,1.54,0,0,0,.29-1.07,2.07,2.07,0,0,0-.25-1.28,1.22,1.22,0,0,0-.66-.43,6,6,0,0,0-1,0l-5,.06h-2.28a1.24,1.24,0,0,0-.68.11,1.1,1.1,0,0,0-.59,1.17,3.81,3.81,0,0,0,0,.79,1,1,0,0,0,.42.57l.45.32-.55.11-3.9.75.21-.25v2.13l-.17-.24,4.22,1.5.11,0,0,.11.19.47,1.76,4.37.43,1.06a1.67,1.67,0,0,0,.57.78,1.63,1.63,0,0,0,1.78.09,1.54,1.54,0,0,0,.63-.66c.13-.27.26-.63.39-.93l.74-1.85,1.38-3.39,0-.1.1,0,4.23-1-.12.16c0-1,0-2,0-2.75l.09.11c-1-.22-1.74-.42-2.23-.55S346.52,460.49,346.54,460.49Z" style="fill:#263238"></path><circle cx="340.92" cy="470.11" r="1" style="fill:#263238"></circle><circle cx="475.61" cy="469.13" r="9.48" transform="translate(-87.03 829.31) rotate(-77.23)" style="fill:#263238"></circle><path d="M481.64,459.26a1.25,1.25,0,0,0,.37-.89v-1a1.29,1.29,0,0,0-1.28-1.28h-9a1.28,1.28,0,0,0-1.28,1.28v1a1.25,1.25,0,0,0,.53,1l-4.11.78v2.28l4.5,1.61,2.58,6.38a2,2,0,0,0,3.7,0l2.58-6.47,4.51-1.09v-2.94Z" style="fill:#e0e0e0"></path><path d="M481.64,459.26s.32.05.87.14l2.29.41h.1v.1c0,.84,0,1.83,0,2.94V463l-.12,0-4.5,1.13.14-.12c-.44,1.14-.92,2.36-1.43,3.64-.25.65-.51,1.31-.78,2-.14.35-.25.67-.42,1a2.28,2.28,0,0,1-.86.91,2.25,2.25,0,0,1-2.47-.13,2.36,2.36,0,0,1-.79-1.06c-.15-.38-.3-.75-.46-1.13l-1.89-4.68-.19-.47.15.14-4.5-1.61-.17-.06V460l.2,0,4.12-.76-.1.43a1.52,1.52,0,0,1-.59-.91,6.46,6.46,0,0,1,0-1,2,2,0,0,1,.16-1,1.5,1.5,0,0,1,.73-.7,2,2,0,0,1,.93-.13h.84l1.6,0,5.41.05a8.1,8.1,0,0,1,1.1,0,1.35,1.35,0,0,1,.83.57,1.39,1.39,0,0,1,.24.83l0,.68a1.51,1.51,0,0,1-.21.92.76.76,0,0,1-.23.24,1.56,1.56,0,0,0,.29-1.16c-.05-.4.08-1-.25-1.38a1.16,1.16,0,0,0-.71-.45,7.07,7.07,0,0,0-1,0l-5.41.05h-2.44a1.61,1.61,0,0,0-.75.1,1.08,1.08,0,0,0-.51.5,1.56,1.56,0,0,0-.1.78,7.78,7.78,0,0,0,0,.86,1.07,1.07,0,0,0,.42.62l.45.32-.54.11-4.12.79.21-.25v2.28l-.17-.24,4.51,1.6.11,0,0,.11.19.48c.65,1.59,1.28,3.16,1.89,4.68l.45,1.13a1.77,1.77,0,0,0,2.54,1,1.78,1.78,0,0,0,.68-.71c.14-.3.28-.68.41-1,.28-.68.54-1.34.8-2l1.48-3.63,0-.1.1,0,4.51-1.05-.12.15c0-1.11,0-2.1,0-2.94l.09.12c-1-.24-1.83-.44-2.35-.58A7,7,0,0,1,481.64,459.26Z" style="fill:#263238"></path><path d="M476.68,469.53a1.08,1.08,0,1,1-1.07-1.07A1.07,1.07,0,0,1,476.68,469.53Z" style="fill:#263238"></path><path d="M447.89,399.87a4.26,4.26,0,0,1-.82.09l-2.37.13-8.71.46c-7.35.39-17.51,1-28.72,1.74l-28.73,1.87-8.7.49-2.37.11a5.77,5.77,0,0,1-.83,0,4.14,4.14,0,0,1,.82-.11l2.36-.2,8.7-.66c7.35-.54,17.5-1.28,28.71-2s21.38-1.3,28.74-1.6c3.68-.16,6.66-.25,8.72-.29l2.38,0A7.33,7.33,0,0,1,447.89,399.87Z" style="fill:#263238"></path><path d="M314.07,194.65s-13.8,4.76-18.66,14.11c-2.67,5.15-10.31,34.82-10.31,34.82l-5.44,27.47-12.44,33.33s4.94,5.4,27.51,8,34.71,6.08,34.71,6.08,1.91-29.62,3.93-41.57,6.8-47.63,6.66-51-3.76-19-3.76-19a108,108,0,0,1-11.67-6.36A90.71,90.71,0,0,0,314.07,194.65Z" style="fill:#FF725E"></path><g style="opacity:0.30000000000000004"><path d="M282.23,266a55.76,55.76,0,0,0,10.1,9.7c6.26,4.67,34.63,22.46,34.63,22.46l7.13-7.57Z"></path></g><path d="M297.73,210.19s-16.85,49.25-16.05,54.57,27.21,17,44.67,26.17l8.33-9.52-29.9-23s16.89-37.63,18.22-44-4.25-16-8.77-16.5S297.73,210.19,297.73,210.19Z" style="fill:#ffbf9d"></path><path d="M313.93,197.23c-8.55-.82-14.12,6.1-17.66,12.44S285.56,241,285.56,241l28.37,8.64c.74-.75,10.32-28.87,10.62-34.77S322.49,198.05,313.93,197.23Z" style="fill:#FF725E"></path><path d="M313.93,197.23a2.08,2.08,0,0,1,.29,0l.86.13a9.36,9.36,0,0,1,3.11,1.22,11.74,11.74,0,0,1,3.64,3.88,22.65,22.65,0,0,1,2.44,15.35c-.65,3.08-1.57,6.31-2.58,9.73s-2.14,7-3.37,10.7q-.92,2.79-1.92,5.67c-.35,1-.69,1.93-1,2.9-.18.49-.37,1-.55,1.46a11,11,0,0,1-.69,1.52l-.08.12-.18-.05L301.08,246l-15.6-4.76-.24-.07.07-.24c2.26-7.73,4.5-14.91,6.72-21.31a93.08,93.08,0,0,1,3.5-8.91,37.41,37.41,0,0,1,4.49-6.92,21.38,21.38,0,0,1,5-4.49,14.13,14.13,0,0,1,4.66-1.9,10.15,10.15,0,0,1,1.81-.24,8.68,8.68,0,0,1,1.33,0l.82.06.27,0a19.68,19.68,0,0,0-4.2.34,14.48,14.48,0,0,0-4.56,1.94,21.87,21.87,0,0,0-4.9,4.49,37.51,37.51,0,0,0-4.39,6.88,93.28,93.28,0,0,0-3.43,8.88c-2.19,6.4-4.41,13.59-6.65,21.31l-.17-.32,15.6,4.75L314,249.4l-.17.15c2.88-7.76,5.37-15.34,7.42-22.11,1-3.4,2-6.63,2.62-9.68a22.53,22.53,0,0,0-2.27-15.13,11.77,11.77,0,0,0-3.51-3.87,9.82,9.82,0,0,0-3-1.28l-.84-.17A1.09,1.09,0,0,1,313.93,197.23Z" style="fill:#263238"></path><path d="M338.32,308.53a1.5,1.5,0,0,1-1.23-.64l-6.61-9.46a1.5,1.5,0,0,1,2.46-1.72l6.61,9.46a1.49,1.49,0,0,1-.37,2.09A1.44,1.44,0,0,1,338.32,308.53Z" style="fill:#e0e0e0"></path><path d="M337.58,298.91a6.81,6.81,0,1,1-6.81-6.81A6.81,6.81,0,0,1,337.58,298.91Z" style="fill:#455a64"></path><path d="M324,286.06s.68,4.29,1.78,5.86,2.59.82,4.23,1.3,2,1.16,2.26,2.19,1.55,8.13,2.8,9a1.28,1.28,0,0,0,2.12-.82c0-1-1.29-10.12-1.29-10.12s2.25,5.06,2.32,6.9.23,5.69,1.86,5.89c.88.11,1.43.12,1.7-1.44a32.87,32.87,0,0,0,.34-6.09c-.14-1.23-1-5.13-1-5.13s2.53,4.93,2.46,6-1.09,1.91-.41,2.73,2.26.48,2.87-.2a10,10,0,0,0,1.44-4.38,51.09,51.09,0,0,0-1.5-5.12s2.2,3.08,2.41,4.31,0,6,.72,6.6,2.12,1,2.46-.61a55.25,55.25,0,0,0,.55-7c0-1.51-3.82-7.27-4.57-8.36s-4.72-1.78-5.61-2.33-8.16-4.39-8.16-4.39Z" style="fill:#ffbf9d"></path><path d="M336.27,206.83a1.9,1.9,0,0,1,.21.51c.13.38.29.88.49,1.5.44,1.37,1,3.27,1.78,5.64h0a95.54,95.54,0,0,1,1,11.16c0,1.09,0,2.22,0,3.37s-.18,2.33-.27,3.53c-.21,2.39-.42,4.89-.65,7.45-.86,9.24-1.93,17.58-2.9,23.58-.47,3-.92,5.42-1.23,7.09l-.4,1.92a4.61,4.61,0,0,1-.17.66,2.7,2.7,0,0,1,.07-.68c.07-.49.17-1.13.3-1.93.26-1.74.62-4.16,1.07-7.11.87-6,1.89-14.35,2.74-23.58.23-2.56.45-5.05.67-7.45.09-1.19.19-2.36.28-3.5s.06-2.25,0-3.34a108.14,108.14,0,0,0-.83-11.11v0c-.68-2.39-1.23-4.31-1.63-5.69-.17-.63-.31-1.13-.41-1.53A3.65,3.65,0,0,1,336.27,206.83Z" style="fill:#263238"></path></g></svg>